<?xml version="1.0" encoding="UTF-8"?>
<svg width="25px" height="25px" viewBox="0 0 25 25" version="1.1" xmlns="http://www.w3.org/2000/svg" xmlns:xlink="http://www.w3.org/1999/xlink">
    <!-- Generator: Sketch 49 (51002) - http://www.bohemiancoding.com/sketch -->
    <title>Page 1</title>
    <desc>Created with Sketch.</desc>
    <defs></defs>
    <g id="Platform-UI-Flow-Hi-Fi" stroke="none" stroke-width="1" fill="none" fill-rule="evenodd">
        <g id="Getting-Started-1-Copy-11" transform="translate(-773.000000, -1993.000000)" fill="#152935">
            <g id="Page-1" transform="translate(773.947897, 1993.046875)">
                <path d="M19,19.1356 C17.196,20.9056 14.727,21.9996 12,21.9996 C9.273,21.9996 6.804,20.9056 5,19.1356 L5,17.4986 C5,16.2026 5.74,15.4986 7,15.4986 L17,15.4986 C18.26,15.4986 19,16.2026 19,17.4986 L19,19.1356 Z M12,4.5836 C14.761,4.5836 17,6.8216 17,9.5836 C17,12.3446 14.761,14.5836 12,14.5836 C9.239,14.5836 7,12.3446 7,9.5836 C7,6.8216 9.239,4.5836 12,4.5836 L12,4.5836 Z M12,-0.000400000001 C5.373,-0.000400000001 0,5.3726 0,11.9996 C0,18.6276 5.373,23.9996 12,23.9996 C18.627,23.9996 24,18.6276 24,11.9996 C24,5.3726 18.627,-0.000400000001 12,-0.000400000001 L12,-0.000400000001 Z" id="Fill-1"></path>
            </g>
        </g>
    </g>
</svg>