<svg id="Layer_1" data-name="Layer 1" xmlns="http://www.w3.org/2000/svg" viewBox="0 0 306 226"><defs><style>.cls-1{fill:#faf0fb;}.cls-2{fill:#9320a2;}.cls-3{font-size:14px;}.cls-12,.cls-3{fill:#343434;font-family:IBMPlexSans, IBM Plex Sans;}.cls-4{fill:#e4f2f0;}.cls-14,.cls-4{stroke:#038571;}.cls-14,.cls-15,.cls-4,.cls-5,.cls-7{stroke-miterlimit:10;}.cls-14,.cls-15,.cls-4,.cls-7{stroke-width:2px;}.cls-14,.cls-5,.cls-7{fill:none;}.cls-5{stroke:#a3a3a3;stroke-width:2.11px;}.cls-6{fill:#f2f6fc;}.cls-7{stroke:#faaf40;}.cls-8{fill:#faaf40;}.cls-9{fill:#008571;}.cls-10{letter-spacing:0em;}.cls-11{letter-spacing:-0.01em;}.cls-12{font-size:11px;}.cls-13{letter-spacing:-0.01em;}.cls-15{fill:#fff;stroke:#fff;}.cls-16{fill:#038571;}</style></defs><title>mcm_app_resource_deployable</title><rect class="cls-1" x="53" y="29" width="149" height="48"/><path class="cls-2" d="M201,30V76H54V30H201m2-2H52V78H203V28Z"/><text class="cls-3" transform="translate(107 59)">Application</text><path class="cls-2" d="M67,41V64H97V41ZM95,62H69V46H95Z"/><rect class="cls-4" x="52.4" y="131" width="150.6" height="50"/><rect class="cls-5" x="17.04" y="17" width="271.96" height="190"/><line class="cls-6" x1="128" y1="78" x2="127.95" y2="129.88"/><line class="cls-7" x1="128" y1="78" x2="127.96" y2="123.42"/><polygon class="cls-8" points="123.47 122.11 127.95 129.88 132.45 122.11 123.47 122.11"/><path class="cls-9" d="M67,144v23H97V144Zm28,21H69V149H95Z"/><text class="cls-3" transform="translate(106 159)">Depl<tspan class="cls-10" x="29.01" y="0">o</tspan><tspan class="cls-11" x="36.78" y="0">y</tspan><tspan x="43.57" y="0">able</tspan></text><rect class="cls-4" x="63.4" y="142" width="150.6" height="50"/><path class="cls-9" d="M78,155v23h30V155Zm28,21H80V160h26Z"/><text class="cls-3" transform="translate(117 170)">Depl<tspan class="cls-10" x="29.01" y="0">o</tspan><tspan class="cls-11" x="36.78" y="0">y</tspan><tspan x="43.57" y="0">able</tspan></text><text class="cls-12" transform="translate(96 103)">G<tspan class="cls-13" x="7.65" y="0">r</tspan><tspan x="11.63" y="0">oup</tspan></text><circle class="cls-14" cx="202.5" cy="120.5" r="8.5"/><rect class="cls-15" x="196" y="122" width="19" height="7"/><line class="cls-14" x1="194" y1="120" x2="194" y2="124.54"/><polygon class="cls-16" points="189.51 123.23 194 131 198.49 123.23 189.51 123.23"/><line class="cls-14" x1="211" y1="120" x2="211" y2="141"/><text class="cls-12" transform="translate(212 130)">Dependency</text></svg>