<svg id="Layer_1" data-name="Layer 1" xmlns="http://www.w3.org/2000/svg" viewBox="0 0 516 223"><defs><style>.cls-1,.cls-14,.cls-7{fill:none;}.cls-1{stroke:#faaf40;}.cls-1,.cls-14,.cls-15,.cls-6,.cls-7{stroke-miterlimit:10;}.cls-1,.cls-14,.cls-15,.cls-6{stroke-width:2px;}.cls-2{fill:#faaf40;}.cls-3{fill:#faf0fb;}.cls-4{fill:#9320a2;}.cls-5{font-size:14px;}.cls-12,.cls-5{fill:#343434;font-family:IBMPlexSans, IBM Plex Sans;}.cls-6{fill:#e4f2f0;}.cls-14,.cls-6{stroke:#038571;}.cls-7{stroke:#a3a3a3;stroke-width:2.11px;}.cls-8{fill:#f2f6fc;}.cls-9{fill:#008571;}.cls-10{letter-spacing:0em;}.cls-11{letter-spacing:-0.01em;}.cls-12{font-size:11px;}.cls-13{letter-spacing:-0.01em;}.cls-15{fill:#fff;stroke:#fff;}.cls-16{fill:#038571;}.cls-17{fill:#f2f7ff;}.cls-18{fill:#36c;}.cls-19{letter-spacing:-0.01em;}.cls-20{letter-spacing:-0.01em;}.cls-21{letter-spacing:-0.02em;}</style></defs><title>mcm_app_resource_placement</title><line class="cls-1" x1="263" y1="154" x2="188.46" y2="154"/><polygon class="cls-2" points="189.77 149.51 182 154 189.77 158.49 189.77 149.51"/><rect class="cls-3" x="264" y="24" width="149" height="48"/><path class="cls-4" d="M412,25V71H265V25H412m2-2H263V73H414V23Z"/><text class="cls-5" transform="translate(318 54)">Application</text><path class="cls-4" d="M278,36V59h30V36Zm28,21H280V41h26Z"/><rect class="cls-6" x="263.4" y="126" width="150.6" height="50"/><rect class="cls-7" x="15" y="12" width="485" height="190"/><line class="cls-8" x1="339" y1="73" x2="338.95" y2="124.88"/><line class="cls-1" x1="339" y1="73" x2="338.96" y2="118.42"/><polygon class="cls-2" points="334.47 117.11 338.95 124.88 343.45 117.11 334.47 117.11"/><path class="cls-9" d="M278,139v23h30V139Zm28,21H280V144h26Z"/><text class="cls-5" transform="translate(317 154)">Depl<tspan class="cls-10" x="29.01" y="0">o</tspan><tspan class="cls-11" x="36.78" y="0">y</tspan><tspan x="43.57" y="0">able</tspan></text><rect class="cls-6" x="274.4" y="137" width="150.6" height="50"/><path class="cls-9" d="M289,150v23h30V150Zm28,21H291V155h26Z"/><text class="cls-5" transform="translate(328 165)">Depl<tspan class="cls-10" x="29.01" y="0">o</tspan><tspan class="cls-11" x="36.78" y="0">y</tspan><tspan x="43.57" y="0">able</tspan></text><text class="cls-12" transform="translate(307 98)">G<tspan class="cls-13" x="7.65" y="0">r</tspan><tspan x="11.63" y="0">oup</tspan></text><circle class="cls-14" cx="413.5" cy="115.5" r="8.5"/><rect class="cls-15" x="407" y="117" width="19" height="7"/><line class="cls-14" x1="405" y1="115" x2="405" y2="119.54"/><polygon class="cls-16" points="400.51 118.23 405 126 409.49 118.23 400.51 118.23"/><line class="cls-14" x1="422" y1="115" x2="422" y2="136"/><text class="cls-12" transform="translate(423 125)">Dependency</text><rect class="cls-17" x="32" y="127" width="149" height="48"/><path class="cls-18" d="M180,128v46H33V128H180m2-2H31v50H182V126Z"/><text class="cls-5" transform="translate(79 157)">Pla<tspan class="cls-19" x="19.77" y="0">c</tspan><tspan x="26.73" y="0">ement rule</tspan></text><path class="cls-18" d="M45,139v23H75V139Zm28,21H47V144H73Z"/><text class="cls-12" transform="translate(191 152)">Pla<tspan class="cls-20" x="15.53" y="0">c</tspan><tspan x="21" y="0">ement</tspan><tspan class="cls-21" x="52.79" y="0">R</tspan><tspan x="59.66" y="0">ef</tspan></text></svg>