<svg id="Layer_1" data-name="Layer 1" xmlns="http://www.w3.org/2000/svg" viewBox="0 0 1606 350"><defs><style>.cls-1,.cls-14,.cls-29,.cls-7{fill:none;}.cls-1,.cls-28{stroke:#faaf40;}.cls-1,.cls-14,.cls-15,.cls-28,.cls-29,.cls-6,.cls-7{stroke-miterlimit:10;}.cls-1,.cls-14,.cls-15,.cls-28,.cls-6{stroke-width:2px;}.cls-2{fill:#faaf40;}.cls-3{fill:#faf0fb;}.cls-4{fill:#9320a2;}.cls-5{font-size:14px;}.cls-12,.cls-5{fill:#343434;font-family:IBMPlexSans, IBM Plex Sans;}.cls-6{fill:#e4f2f0;}.cls-14,.cls-6{stroke:#038571;}.cls-7{stroke:#a3a3a3;stroke-width:2.11px;}.cls-28,.cls-8{fill:#f2f6fc;}.cls-9{fill:#008571;}.cls-10{letter-spacing:0em;}.cls-11{letter-spacing:-0.01em;}.cls-12{font-size:11px;}.cls-13{letter-spacing:-0.01em;}.cls-15{fill:#fff;stroke:#fff;}.cls-16{fill:#038571;}.cls-17{fill:#f2f7ff;}.cls-18{fill:#36c;}.cls-19{letter-spacing:-0.01em;}.cls-20{letter-spacing:-0.01em;}.cls-21{letter-spacing:-0.02em;}.cls-22{fill:#fffaf5;}.cls-23{fill:#ffb733;}.cls-24{fill:#f93;}.cls-25{fill:#fbeff7;}.cls-26{fill:#c39;}.cls-27{letter-spacing:-0.01em;}.cls-29{stroke:#0a00b9;stroke-width:10px;}.cls-30{fill:#0a00b9;}</style></defs><title>mcm_app_lifecycle_options</title><line class="cls-1" x1="1166" y1="168" x2="1091.46" y2="168"/><polygon class="cls-2" points="1092.77 163.51 1085 168 1092.77 172.49 1092.77 163.51"/><rect class="cls-3" x="1167" y="38" width="149" height="48"/><path class="cls-4" d="M1315,39V85H1168V39h147m2-2H1166V87h151V37Z"/><text class="cls-5" transform="translate(1221 68)">Application</text><path class="cls-4" d="M1181,50V73h30V50Zm28,21h-26V55h26Z"/><rect class="cls-6" x="1166.4" y="140" width="150.6" height="50"/><rect class="cls-7" x="23" y="22" width="1566" height="305"/><line class="cls-8" x1="1242" y1="87" x2="1241.95" y2="138.88"/><line class="cls-1" x1="1242" y1="87" x2="1241.96" y2="132.42"/><polygon class="cls-2" points="1237.47 131.11 1241.95 138.88 1246.45 131.12 1237.47 131.11"/><path class="cls-9" d="M1181,153v23h30V153Zm28,21h-26V158h26Z"/><text class="cls-5" transform="translate(1220 168)">Depl<tspan class="cls-10" x="29.01" y="0">o</tspan><tspan class="cls-11" x="36.78" y="0">y</tspan><tspan x="43.57" y="0">able</tspan></text><rect class="cls-6" x="1177.4" y="151" width="150.6" height="50"/><path class="cls-9" d="M1192,164v23h30V164Zm28,21h-26V169h26Z"/><text class="cls-5" transform="translate(1231 179)">Depl<tspan class="cls-10" x="29.01" y="0">o</tspan><tspan class="cls-11" x="36.78" y="0">y</tspan><tspan x="43.57" y="0">able</tspan></text><text class="cls-12" transform="translate(1210 112)">G<tspan class="cls-13" x="7.65" y="0">r</tspan><tspan x="11.63" y="0">oup</tspan></text><circle class="cls-14" cx="1316.5" cy="129.5" r="8.5"/><rect class="cls-15" x="1310" y="131" width="19" height="7"/><line class="cls-14" x1="1308" y1="129" x2="1308" y2="133.54"/><polygon class="cls-16" points="1303.51 132.23 1308 140 1312.49 132.23 1303.51 132.23"/><line class="cls-14" x1="1325" y1="129" x2="1325" y2="150"/><text class="cls-12" transform="translate(1326 139)">Dependency</text><rect class="cls-17" x="935" y="141" width="149" height="48"/><path class="cls-18" d="M1083,142v46H936V142h147m2-2H934v50h151V140Z"/><text class="cls-5" transform="translate(982 171)">Pla<tspan class="cls-19" x="19.77" y="0">c</tspan><tspan x="26.73" y="0">ement rule</tspan></text><path class="cls-18" d="M948,153v23h30V153Zm28,21H950V158h26Z"/><text class="cls-12" transform="translate(1094 166)">Pla<tspan class="cls-20" x="15.53" y="0">c</tspan><tspan x="21" y="0">ement</tspan><tspan class="cls-21" x="52.79" y="0">R</tspan><tspan x="59.66" y="0">ef</tspan></text><rect class="cls-22" x="1412" y="144" width="149" height="48"/><path class="cls-23" d="M1560,145v46H1413V145h147m2-2H1411v50h151V143Z"/><text class="cls-5" transform="translate(1466 174)">Channel</text><path class="cls-24" d="M1426,156v23h30V156Zm28,21h-26V161h26Z"/><line class="cls-1" x1="1329" y1="168" x2="1404.54" y2="168"/><polygon class="cls-2" points="1403.23 172.49 1411 168 1403.23 163.51 1403.23 172.49"/><rect class="cls-25" x="1167" y="254" width="149" height="48"/><path class="cls-26" d="M1315,255v46H1168V255h147m2-2H1166v50h151V253Z"/><text class="cls-5" transform="translate(1221 284)">Subscri<tspan class="cls-27" x="46.7" y="0">p</tspan><tspan x="54.74" y="0">tion</tspan></text><path class="cls-26" d="M1181,266v23h30V266Zm28,21h-26V271h26Z"/><line class="cls-8" x1="1004" y1="280" x2="1004" y2="190"/><line class="cls-1" x1="1004" y1="280" x2="1004" y2="196.46"/><polygon class="cls-2" points="1008.49 197.77 1004 190 999.51 197.77 1008.49 197.77"/><text class="cls-12" transform="translate(1342 165)">Channels</text><text class="cls-12" transform="translate(1366 279)">Subscribes</text><text class="cls-12" transform="translate(1056 277)">Pla<tspan class="cls-20" x="15.53" y="0">c</tspan><tspan x="21" y="0">ement</tspan><tspan class="cls-21" x="52.79" y="0">R</tspan><tspan x="59.66" y="0">ef</tspan></text><line class="cls-28" x1="1166" y1="279" x2="1004" y2="279"/><line class="cls-28" x1="1479" y1="281" x2="1317" y2="281"/><line class="cls-8" x1="1480" y1="282" x2="1480" y2="192"/><line class="cls-1" x1="1480" y1="282" x2="1480" y2="198.46"/><polygon class="cls-2" points="1484.49 199.77 1480 192 1475.51 199.77 1484.49 199.77"/><line class="cls-1" x1="597" y1="213" x2="522.46" y2="213"/><polygon class="cls-2" points="523.77 208.51 516 213 523.77 217.49 523.77 208.51"/><rect class="cls-3" x="598" y="83" width="149" height="48"/><path class="cls-4" d="M746,84v46H599V84H746m2-2H597v50H748V82Z"/><text class="cls-5" transform="translate(652 113)">Application</text><path class="cls-4" d="M612,95v23h30V95Zm28,21H614V100h26Z"/><rect class="cls-6" x="597.4" y="185" width="150.6" height="50"/><line class="cls-8" x1="673" y1="132" x2="672.95" y2="183.88"/><line class="cls-1" x1="673" y1="132" x2="672.96" y2="177.42"/><polygon class="cls-2" points="668.47 176.11 672.95 183.88 677.45 176.12 668.47 176.11"/><path class="cls-9" d="M612,198v23h30V198Zm28,21H614V203h26Z"/><text class="cls-5" transform="translate(651 213)">Depl<tspan class="cls-10" x="29.01" y="0">o</tspan><tspan class="cls-11" x="36.78" y="0">y</tspan><tspan x="43.57" y="0">able</tspan></text><rect class="cls-6" x="608.4" y="196" width="150.6" height="50"/><path class="cls-9" d="M623,209v23h30V209Zm28,21H625V214h26Z"/><text class="cls-5" transform="translate(662 224)">Depl<tspan class="cls-10" x="29.01" y="0">o</tspan><tspan class="cls-11" x="36.78" y="0">y</tspan><tspan x="43.57" y="0">able</tspan></text><text class="cls-12" transform="translate(641 157)">G<tspan class="cls-13" x="7.65" y="0">r</tspan><tspan x="11.63" y="0">oup</tspan></text><circle class="cls-14" cx="747.5" cy="174.5" r="8.5"/><rect class="cls-15" x="741" y="176" width="19" height="7"/><line class="cls-14" x1="739" y1="174" x2="739" y2="178.54"/><polygon class="cls-16" points="734.51 177.23 739 185 743.49 177.23 734.51 177.23"/><line class="cls-14" x1="756" y1="174" x2="756" y2="195"/><text class="cls-12" transform="translate(757 184)">Dependency</text><rect class="cls-17" x="366" y="186" width="149" height="48"/><path class="cls-18" d="M514,187v46H367V187H514m2-2H365v50H516V185Z"/><text class="cls-5" transform="translate(413 216)">Pla<tspan class="cls-19" x="19.77" y="0">c</tspan><tspan x="26.73" y="0">ement rule</tspan></text><path class="cls-18" d="M379,198v23h30V198Zm28,21H381V203h26Z"/><text class="cls-12" transform="translate(525 211)">Pla<tspan class="cls-20" x="15.53" y="0">c</tspan><tspan x="21" y="0">ement</tspan><tspan class="cls-21" x="52.79" y="0">R</tspan><tspan x="59.66" y="0">ef</tspan></text><rect class="cls-3" x="35" y="71" width="149" height="48"/><path class="cls-4" d="M183,72v46H36V72H183m2-2H34v50H185V70Z"/><text class="cls-5" transform="translate(89 101)">Application</text><path class="cls-4" d="M49,83v23H79V83Zm28,21H51V88H77Z"/><rect class="cls-6" x="34.4" y="173" width="150.6" height="50"/><line class="cls-8" x1="110" y1="120" x2="109.95" y2="171.88"/><line class="cls-1" x1="110" y1="120" x2="109.96" y2="165.42"/><polygon class="cls-2" points="105.47 164.11 109.95 171.88 114.45 164.12 105.47 164.11"/><path class="cls-9" d="M49,186v23H79V186Zm28,21H51V191H77Z"/><text class="cls-5" transform="translate(88 201)">Depl<tspan class="cls-10" x="29.01" y="0">o</tspan><tspan class="cls-11" x="36.78" y="0">y</tspan><tspan x="43.57" y="0">able</tspan></text><rect class="cls-6" x="45.4" y="184" width="150.6" height="50"/><path class="cls-9" d="M60,197v23H90V197Zm28,21H62V202H88Z"/><text class="cls-5" transform="translate(99 212)">Depl<tspan class="cls-10" x="29.01" y="0">o</tspan><tspan class="cls-11" x="36.78" y="0">y</tspan><tspan x="43.57" y="0">able</tspan></text><text class="cls-12" transform="translate(78 145)">G<tspan class="cls-13" x="7.65" y="0">r</tspan><tspan x="11.63" y="0">oup</tspan></text><circle class="cls-14" cx="184.5" cy="162.5" r="8.5"/><rect class="cls-15" x="178" y="164" width="19" height="7"/><line class="cls-14" x1="176" y1="162" x2="176" y2="166.54"/><polygon class="cls-16" points="171.51 165.23 176 173 180.49 165.23 171.51 165.23"/><line class="cls-14" x1="193" y1="162" x2="193" y2="183"/><text class="cls-12" transform="translate(194 172)">Dependency</text><line class="cls-8" x1="273" y1="163" x2="368" y2="162"/><line class="cls-29" x1="273" y1="163" x2="343.6" y2="162.26"/><polygon class="cls-30" points="338.82 179.26 368 162 338.46 145.36 338.82 179.26"/><line class="cls-8" x1="829" y1="165" x2="924" y2="164"/><line class="cls-29" x1="829" y1="165" x2="899.6" y2="164.26"/><polygon class="cls-30" points="894.82 181.26 924 164 894.46 147.36 894.82 181.26"/></svg>