<svg id="Layer_1" data-name="Layer 1" xmlns="http://www.w3.org/2000/svg" viewBox="0 0 700 340"><defs><style>.cls-1,.cls-14,.cls-7{fill:none;}.cls-1,.cls-28{stroke:#faaf40;}.cls-1,.cls-14,.cls-15,.cls-28,.cls-6,.cls-7{stroke-miterlimit:10;}.cls-1,.cls-14,.cls-15,.cls-28,.cls-6{stroke-width:2px;}.cls-2{fill:#faaf40;}.cls-3{fill:#faf0fb;}.cls-4{fill:#9320a2;}.cls-5{font-size:14px;}.cls-12,.cls-5{fill:#343434;font-family:IBMPlexSans, IBM Plex Sans;}.cls-6{fill:#e4f2f0;}.cls-14,.cls-6{stroke:#038571;}.cls-7{stroke:#a3a3a3;stroke-width:2.11px;}.cls-28,.cls-8{fill:#f2f6fc;}.cls-9{fill:#008571;}.cls-10{letter-spacing:0em;}.cls-11{letter-spacing:-0.01em;}.cls-12{font-size:11px;}.cls-13{letter-spacing:-0.01em;}.cls-15{fill:#fff;stroke:#fff;}.cls-16{fill:#038571;}.cls-17{fill:#f2f7ff;}.cls-18{fill:#36c;}.cls-19{letter-spacing:-0.01em;}.cls-20{letter-spacing:-0.01em;}.cls-21{letter-spacing:-0.02em;}.cls-22{fill:#fffaf5;}.cls-23{fill:#ffb733;}.cls-24{fill:#f93;}.cls-25{fill:#fbeff7;}.cls-26{fill:#c39;}.cls-27{letter-spacing:-0.01em;}</style></defs><title>mcm_app_resource_subscription</title><line class="cls-1" x1="267" y1="169" x2="192.46" y2="169"/><polygon class="cls-2" points="193.77 164.51 186 169 193.77 173.49 193.77 164.51"/><rect class="cls-3" x="268" y="39" width="149" height="48"/><path class="cls-4" d="M416,40V86H269V40H416m2-2H267V88H418V38Z"/><text class="cls-5" transform="translate(322 69)">Application</text><path class="cls-4" d="M282,51V74h30V51Zm28,21H284V56h26Z"/><rect class="cls-6" x="267.4" y="141" width="150.6" height="50"/><rect class="cls-7" x="19" y="27" width="661" height="296"/><line class="cls-8" x1="343" y1="88" x2="342.95" y2="139.88"/><line class="cls-1" x1="343" y1="88" x2="342.96" y2="133.42"/><polygon class="cls-2" points="338.47 132.11 342.95 139.88 347.45 132.12 338.47 132.11"/><path class="cls-9" d="M282,154v23h30V154Zm28,21H284V159h26Z"/><text class="cls-5" transform="translate(321 169)">Depl<tspan class="cls-10" x="29.01" y="0">o</tspan><tspan class="cls-11" x="36.78" y="0">y</tspan><tspan x="43.57" y="0">able</tspan></text><rect class="cls-6" x="278.4" y="152" width="150.6" height="50"/><path class="cls-9" d="M293,165v23h30V165Zm28,21H295V170h26Z"/><text class="cls-5" transform="translate(332 180)">Depl<tspan class="cls-10" x="29.01" y="0">o</tspan><tspan class="cls-11" x="36.78" y="0">y</tspan><tspan x="43.57" y="0">able</tspan></text><text class="cls-12" transform="translate(311 113)">G<tspan class="cls-13" x="7.65" y="0">r</tspan><tspan x="11.63" y="0">oup</tspan></text><circle class="cls-14" cx="417.5" cy="130.5" r="8.5"/><rect class="cls-15" x="411" y="132" width="19" height="7"/><line class="cls-14" x1="409" y1="130" x2="409" y2="134.54"/><polygon class="cls-16" points="404.51 133.23 409 141 413.49 133.23 404.51 133.23"/><line class="cls-14" x1="426" y1="130" x2="426" y2="151"/><text class="cls-12" transform="translate(427 140)">Dependency</text><rect class="cls-17" x="36" y="142" width="149" height="48"/><path class="cls-18" d="M184,143v46H37V143H184m2-2H35v50H186V141Z"/><text class="cls-5" transform="translate(83 172)">Pla<tspan class="cls-19" x="19.77" y="0">c</tspan><tspan x="26.73" y="0">ement rule</tspan></text><path class="cls-18" d="M49,154v23H79V154Zm28,21H51V159H77Z"/><text class="cls-12" transform="translate(195 167)">Pla<tspan class="cls-20" x="15.53" y="0">c</tspan><tspan x="21" y="0">ement</tspan><tspan class="cls-21" x="52.79" y="0">R</tspan><tspan x="59.66" y="0">ef</tspan></text><rect class="cls-22" x="513" y="145" width="149" height="48"/><path class="cls-23" d="M661,146v46H514V146H661m2-2H512v50H663V144Z"/><text class="cls-5" transform="translate(567 175)">Channel</text><path class="cls-24" d="M527,157v23h30V157Zm28,21H529V162h26Z"/><line class="cls-1" x1="430" y1="169" x2="505.54" y2="169"/><polygon class="cls-2" points="504.23 173.49 512 169 504.23 164.51 504.23 173.49"/><rect class="cls-25" x="268" y="255" width="149" height="48"/><path class="cls-26" d="M416,256v46H269V256H416m2-2H267v50H418V254Z"/><text class="cls-5" transform="translate(322 285)">Subscri<tspan class="cls-27" x="46.7" y="0">p</tspan><tspan x="54.74" y="0">tion</tspan></text><path class="cls-26" d="M282,267v23h30V267Zm28,21H284V272h26Z"/><line class="cls-8" x1="105" y1="281" x2="105" y2="191"/><line class="cls-1" x1="105" y1="281" x2="105" y2="197.46"/><polygon class="cls-2" points="109.49 198.77 105 191 100.51 198.77 109.49 198.77"/><text class="cls-12" transform="translate(443 166)">Channels</text><text class="cls-12" transform="translate(467 280)">Subscribes</text><text class="cls-12" transform="translate(157 278)">Pla<tspan class="cls-20" x="15.53" y="0">c</tspan><tspan x="21" y="0">ement</tspan><tspan class="cls-21" x="52.79" y="0">R</tspan><tspan x="59.66" y="0">ef</tspan></text><line class="cls-28" x1="267" y1="280" x2="105" y2="280"/><line class="cls-28" x1="580" y1="282" x2="418" y2="282"/><line class="cls-8" x1="581" y1="283" x2="581" y2="193"/><line class="cls-1" x1="581" y1="283" x2="581" y2="199.46"/><polygon class="cls-2" points="585.49 200.77 581 193 576.51 200.77 585.49 200.77"/></svg>