<svg id="Layer_1" data-name="Layer 1" xmlns="http://www.w3.org/2000/svg" viewBox="0 0 872.33 417"><defs><style>.cls-1,.cls-28,.cls-33{fill:none;}.cls-1{stroke:#a3a3a3;}.cls-1,.cls-18,.cls-28,.cls-33{stroke-miterlimit:10;}.cls-1,.cls-28{stroke-width:2.11px;}.cls-2{font-size:11px;}.cls-12,.cls-2{fill:#343434;font-family:IBMPlexSans, IBM Plex Sans;}.cls-3{letter-spacing:-0.01em;}.cls-4{letter-spacing:0em;}.cls-5{letter-spacing:0em;}.cls-6{letter-spacing:0em;}.cls-7{letter-spacing:-0.01em;}.cls-8{letter-spacing:-0.01em;}.cls-9{letter-spacing:0em;}.cls-10{fill:#f2f7ff;}.cls-11{fill:#36c;}.cls-12{font-size:14px;}.cls-13{letter-spacing:0em;}.cls-14{letter-spacing:0em;}.cls-15{letter-spacing:-0.02em;}.cls-16{fill:#fff;}.cls-17{fill:#9320a2;}.cls-18{fill:#939;stroke:#9320a2;}.cls-19{fill:#e4f2f0;}.cls-20{fill:#038571;}.cls-21{letter-spacing:-0.04em;}.cls-22{letter-spacing:-0.01em;}.cls-23{letter-spacing:0em;}.cls-24{letter-spacing:-0.01em;}.cls-25{letter-spacing:0em;}.cls-26{letter-spacing:-0.02em;}.cls-27{letter-spacing:0.01em;}.cls-28{stroke:#faaf41;}.cls-29{letter-spacing:-0.01em;}.cls-30{fill:#fbeff7;}.cls-31{fill:#c39;}.cls-32{fill:#f2f6fc;}.cls-33{stroke:#faaf40;stroke-width:2px;}.cls-34{fill:#faaf40;}.cls-35{letter-spacing:-0.01em;}.cls-36{fill:#faaf41;}.cls-37{letter-spacing:0.01em;}.cls-38{letter-spacing:0em;}.cls-39{letter-spacing:-0.01em;}.cls-40{letter-spacing:-0.01em;}.cls-41{letter-spacing:0em;}.cls-42{letter-spacing:-0.08em;}.cls-43{letter-spacing:-0.01em;}</style></defs><title>appmgt_overviewtop</title><polygon class="cls-1" points="856 402.33 16 401.05 16 22.33 856 23.61 856 402.33"/><text class="cls-2" transform="translate(562 289.33)">Depl<tspan class="cls-3" x="22.79" y="0">o</tspan><tspan class="cls-4" x="28.9" y="0">y cha</tspan><tspan class="cls-5" x="54.64" y="0">r</tspan><tspan x="58.72" y="0">t or </tspan><tspan class="cls-3" x="77.97" y="0">r</tspan><tspan x="81.95" y="0">esou</tspan><tspan class="cls-6" x="105.75" y="0">r</tspan><tspan class="cls-7" x="109.73" y="0">c</tspan><tspan x="115.2" y="0">e</tspan></text><text class="cls-2" transform="translate(636 229.33)">A<tspan class="cls-7" x="7.05" y="0">s</tspan><tspan x="12.34" y="0">semble</tspan></text><text class="cls-2" transform="translate(407 230.33)"><tspan class="cls-8">W</tspan><tspan x="9.69" y="0">a</tspan><tspan class="cls-9" x="15.56" y="0">t</tspan><tspan class="cls-4" x="19.38" y="0">ch</tspan></text><rect class="cls-10" x="327" y="334.33" width="133" height="48"/><path class="cls-11" d="M459,335.33v46H328v-46H459m2-2H326v50H461v-50Z"/><text class="cls-12" transform="translate(374 364.33)">Depl<tspan class="cls-13" x="29.01" y="0">o</tspan><tspan class="cls-14" x="36.78" y="0">yments</tspan></text><path class="cls-11" d="M340,346.33v23h30v-23Zm28,21H342v-16h26Z"/><rect class="cls-10" x="478" y="334.33" width="133" height="48"/><path class="cls-11" d="M610,335.33v46H479v-46H610m2-2H477v50H612v-50Z"/><text class="cls-12" transform="translate(525 364.33)"><tspan class="cls-15">P</tspan><tspan x="8.2" y="0">ods</tspan></text><path class="cls-11" d="M491,346.33v23h30v-23Zm28,21H493v-16h26Z"/><rect class="cls-10" x="626" y="334.33" width="133" height="48"/><path class="cls-11" d="M758,335.33v46H627v-46H758m2-2H625v50H760v-50Z"/><text class="cls-12" transform="translate(673 364.33)">Sec<tspan class="cls-13" x="22.86" y="0">r</tspan><tspan x="27.93" y="0">ets</tspan></text><path class="cls-11" d="M639,346.33v23h30v-23Zm28,21H641v-16h26Z"/><rect class="cls-16" x="36" y="78.33" width="114" height="57"/><path class="cls-17" d="M149,79.33v55H37v-55H149m2-2H35v59H151v-59Z"/><rect class="cls-18" x="92" y="30.33" width="2" height="116" transform="translate(4.67 181.33) rotate(-90)"/><rect class="cls-18" x="45" y="77.33" width="2" height="59"/><rect class="cls-19" x="537" y="33.33" width="133" height="141" rx="12" ry="12"/><path class="cls-20" d="M658,33.33h-5v2h5v-2Zm-10,0h-5v2h5v-2Zm-10,0h-5v2h5v-2Zm-10,0h-5v2h5v-2Zm-10,0h-5v2h5v-2Zm-10,0h-5v2h5v-2Zm-10,0h-5v2h5v-2Zm-10,0h-5v2h5v-2Zm-10,0h-5v2h5v-2Zm-10,0h-5v2h5v-2Zm-10,0h-5v2h5v-2Zm-10,0c-.36,0-.72.08-1.08.15h-.54a11.88,11.88,0,0,0-1.44.42h0l-.12.05h-.08l-.05,0h-.27l0,0h-.09c-.35.15-.68.31-1,.49l1,1.75a9.85,9.85,0,0,1,4-1.19l-.17-2Zm-8.52,4.68a11.89,11.89,0,0,0-1.94,3.74h-.07l0,.08h0c0,.14-.08.29-.11.43l1.94.47a10,10,0,0,1,1.79-3.73l-1.59-1.21ZM539,47.49h-2v5h2v-5Zm0,10h-2v5h2v-5Zm0,10h-2v5h2v-5Zm0,10h-2v5h2v-5Zm0,10h-2v5h2v-5Zm0,10h-2v5h2v-5Zm0,10h-2v5h2v-5Zm0,10h-2v5h2v-5Zm0,10h-2v5h2v-5Zm0,10h-2v5h2v-5Zm0,10h-2v5h2v-5Zm0,10h-2v4.84h0v.14l2,0v-5Zm.91,9-1.81.84a12,12,0,0,0,2.37,3.42h0v0h0l0,.05h.14l0,0h0l.3.28,1.33-1.5a10.15,10.15,0,0,1-2.48-3.33Zm6.08,5.38-.61,1.9.22.07h.28a12,12,0,0,0,2.42.39h2v-2H549a9.85,9.85,0,0,1-3-.46Zm14.33.46h-5v2h5v-2Zm10,0h-5v2h5v-2Zm10,0h-5v2h5v-2Zm10,0h-5v2h5v-2Zm10,0h-5v2h5v-2Zm10,0h-5v2h5v-2Zm10,0h-5v2h5v-2Zm10,0h-5v2h5v-2Zm10,0h-5v2h5v-2Zm10,0h-5v2h5v-2Zm9.6-.18a10.24,10.24,0,0,1-1.92.18h-2.68v2h3.86l.12,0h0c.34,0,.67-.09,1-.15l-.39-2Zm6.63-4.66a10.23,10.23,0,0,1-2.83,3l1.15,1.64a11,11,0,0,0,1.13-.91h0a.39.39,0,0,0,.1-.08h0l.09-.09h0l.08-.07h0l.07-.06h0l0,0h0l0,0h0l.05-.05h0l0,0h0l.06-.07h0l0,0h0l0,0h0l0-.05h0l0,0h.05l0,0h0l0,0h0l0,0h0l0,0h0l0,0h0l0,0h0l0-.05h0l0,0h0l0,0h0l0,0h.05l0,0h0l0,0H668v0h.06v0h.11l0,0h0l0,0h0l-1.71-1Zm3.45-8.64h-2v3.48a10.69,10.69,0,0,1-.08,1.27l2,.25c0-.16,0-.31.05-.47h0v0h0v0h0v0h0v0h0v0h0v-3.48Zm0-10h-2v5h2v-5Zm0-10h-2v5h2v-5Zm0-10h-2v5h2v-5Zm0-10h-2v5h2v-5Zm0-10h-2v5h2v-5Zm0-10h-2v5h2v-5Zm0-10h-2v5h2v-5Zm0-10h-2v5h2v-5Zm0-10h-2v5h2v-5Zm0-10h-2v5h2v-5Zm0-10h-2v5h2v-5Zm-1.72-9.68-1.71,1a9.76,9.76,0,0,1,1.35,3.9l2-.24a12.19,12.19,0,0,0-.84-3.15h0v0h0l0-.1h0l-.06-.13h0l-.07-.14h0a.91.91,0,0,0-.07-.14h0c-.16-.33-.33-.65-.52-1Zm-7.94-5.61-.39,2a9.88,9.88,0,0,1,3.8,1.63l1.15-1.63c-.26-.19-.53-.36-.81-.53h-.18l0,0h-.05a12.14,12.14,0,0,0-3.47-1.28Z"/><path class="cls-19" d="M578.19,124.33A59.45,59.45,0,0,1,547,116V88.33H661v27.24c-21.75.08-38.48,2.87-53.26,5.35-11,1.83-20.46,3.41-29.55,3.41Z"/><path class="cls-20" d="M660,89.33v25.24c-21.34.17-37.83,2.92-52.43,5.36-10.93,1.83-20.38,3.4-29.38,3.4A58.44,58.44,0,0,1,548,115.41V89.33H660m2-2H546v29.23a60.73,60.73,0,0,0,32.19,8.77c21.48,0,45.14-8.77,83.81-8.77V87.33Z"/><text class="cls-12" transform="translate(570 106.33)">ap<tspan class="cls-15" x="15.6" y="0">p</tspan><tspan class="cls-21" x="23.44" y="0">.</tspan><tspan class="cls-22" x="26.61" y="0">y</tspan><tspan class="cls-23" x="33.4" y="0">aml</tspan></text><rect class="cls-16" x="159" y="78.33" width="114" height="57"/><path class="cls-17" d="M272,79.33v55H160v-55H272m2-2H158v59H274v-59Z"/><rect class="cls-18" x="215" y="30.33" width="2" height="116" transform="translate(127.67 304.33) rotate(-90)"/><rect class="cls-18" x="168" y="77.33" width="2" height="59"/><text class="cls-12" transform="translate(181.02 110.33)">Object <tspan class="cls-24" x="44.48" y="0">s</tspan><tspan class="cls-25" x="51.2" y="0">t</tspan><tspan x="56.06" y="0">o</tspan><tspan class="cls-13" x="63.9" y="0">r</tspan><tspan x="68.96" y="0">e </tspan><tspan x="18.55" y="16">buc</tspan><tspan class="cls-26" x="41.66" y="16">k</tspan><tspan x="48.8" y="16">et</tspan></text><rect class="cls-16" x="283" y="78.33" width="114" height="57"/><path class="cls-17" d="M396,79.33v55H284v-55H396m2-2H282v59H398v-59Z"/><rect class="cls-18" x="339" y="30.33" width="2" height="116" transform="translate(251.67 428.33) rotate(-90)"/><rect class="cls-18" x="292" y="77.33" width="2" height="59"/><text class="cls-12" transform="translate(326.54 109.33)">Helm <tspan class="cls-13" x="-13.54" y="16">r</tspan><tspan x="-8.47" y="16">eposi</tspan><tspan class="cls-25" x="25.49" y="16">t</tspan><tspan x="30.35" y="16">o</tspan><tspan class="cls-27" x="38.19" y="16">r</tspan><tspan x="43.47" y="16">y</tspan></text><path class="cls-28" d="M278.87,206.51c.14-19.77-43.78-38.8-97.87-39.18"/><path class="cls-28" d="M282,206.51c-.14-19.77,43.78-38.8,97.87-39.18"/><text class="cls-12" transform="translate(55 110.33)">Namespa<tspan class="cls-29" x="59.7" y="0">c</tspan><tspan class="cls-23" x="66.65" y="0">e</tspan></text><rect class="cls-30" x="209" y="207.33" width="149" height="48"/><path class="cls-31" d="M357,208.33v46H210v-46H357m2-2H208v50H359v-50Z"/><path class="cls-31" d="M223,219.33v23h30v-23Zm28,21H225v-16h26Z"/><rect class="cls-30" x="690" y="206.33" width="149" height="48"/><path class="cls-31" d="M838,207.33v46H691v-46H838m2-2H689v50H840v-50Z"/><path class="cls-31" d="M704,218.33v23h30v-23Zm28,21H706v-16h26Z"/><text class="cls-12" transform="translate(747 233.33)">Application</text><text class="cls-12" transform="translate(277 234.33)">Channel</text><rect class="cls-30" x="469" y="200.33" width="149" height="48"/><path class="cls-31" d="M617,201.33v46H470v-46H617m2-2H468v50H619v-50Z"/><rect class="cls-30" x="463" y="206.33" width="149" height="48"/><path class="cls-31" d="M611,207.33v46H464v-46H611m2-2H462v50H613v-50Z"/><line class="cls-32" x1="537.66" y1="262.51" x2="538.05" y2="332.51"/><line class="cls-33" x1="537.66" y1="262.51" x2="537.99" y2="322.62"/><polygon class="cls-34" points="538.05 332.51 532.28 318.61 537.99 321.89 543.66 318.55 538.05 332.51"/><path class="cls-28" d="M536.68,262.34c.25,20.45-22.93,37.11-51.67,37.47"/><rect class="cls-30" x="457" y="214.33" width="149" height="48"/><path class="cls-31" d="M605,215.33v46H458v-46H605m2-2H456v50H607v-50Z"/><text class="cls-12" transform="translate(511 243.33)">Subscri<tspan class="cls-35" x="46.7" y="0">p</tspan><tspan x="54.74" y="0">tion</tspan></text><path class="cls-28" d="M425.09,323.07c8-13.36,31.8-23.1,59.94-23.23"/><polygon class="cls-36" points="422.18 333.12 432.45 320.96 425.64 322.43 421 317.25 422.18 333.12"/><path class="cls-31" d="M471,226.33v23h30v-23Zm28,21H473v-16h26Z"/><path class="cls-19" d="M578.19,80.33A59.45,59.45,0,0,1,547,72V44.33H661V71.57c-21.75.08-38.48,2.87-53.26,5.35-11,1.83-20.46,3.41-29.55,3.41Z"/><path class="cls-20" d="M660,45.33V70.57c-21.34.17-37.83,2.92-52.43,5.36-10.93,1.83-20.38,3.4-29.38,3.4A58.44,58.44,0,0,1,548,71.41V45.33H660m2-2H546V72.56a60.73,60.73,0,0,0,32.19,8.77c21.48,0,45.14-8.77,83.81-8.77V43.33Z"/><path class="cls-19" d="M578.19,168.33A59.45,59.45,0,0,1,547,160V132.33H661v27.24c-21.75.08-38.48,2.87-53.26,5.35-11,1.83-20.46,3.41-29.55,3.41Z"/><path class="cls-20" d="M660,133.33v25.24c-21.34.17-37.83,2.92-52.43,5.36-10.93,1.83-20.38,3.4-29.38,3.4A58.44,58.44,0,0,1,548,159.41V133.33H660m2-2H546v29.23a60.73,60.73,0,0,0,32.19,8.77c21.48,0,45.14-8.77,83.81-8.77V131.33Z"/><text class="cls-12" transform="translate(560 61.33)">helm<tspan class="cls-37" x="31.67" y="0">-</tspan><tspan x="37.39" y="0">ca</tspan><tspan class="cls-38" x="51.91" y="0">r</tspan><tspan x="57.1" y="0">t</tspan><tspan class="cls-39" x="62.02" y="0">.</tspan><tspan class="cls-40" x="65.62" y="0">t</tspan><tspan x="70.39" y="0">gz</tspan></text><text class="cls-12" transform="translate(560 148.33)">ope<tspan class="cls-41" x="23.65" y="0">r</tspan><tspan x="28.73" y="0">a</tspan><tspan class="cls-25" x="36.2" y="0">t</tspan><tspan x="41.06" y="0">o</tspan><tspan class="cls-42" x="48.9" y="0">r</tspan><tspan class="cls-21" x="52.92" y="0">.</tspan><tspan class="cls-43" x="56.1" y="0">y</tspan><tspan x="62.89" y="0">aml</tspan></text><line class="cls-33" x1="456" y1="233.33" x2="368.88" y2="233.33"/><polygon class="cls-34" points="359 233.33 372.93 227.64 369.62 233.33 372.93 239.02 359 233.33"/><path class="cls-28" d="M538.79,263.33c0,20.45,23.33,36.85,52.07,36.89"/><path class="cls-28" d="M651,322.82c-8.18-13.27-32-22.75-60.2-22.56"/><polygon class="cls-36" points="654.06 332.83 655.07 316.95 650.48 322.19 643.66 320.8 654.06 332.83"/><line class="cls-33" x1="689" y1="233.33" x2="628.88" y2="233.33"/><polygon class="cls-34" points="619 233.33 632.93 227.64 629.62 233.33 632.93 239.02 619 233.33"/><path class="cls-28" d="M538,199.33c-.07-7.29,11.07-13.18,24.83-13.25"/><path class="cls-28" d="M585.83,181.94c-5.54,2.53-13.79,4.14-23,4.13"/><polygon class="cls-36" points="593 174.33 578.23 180.25 584.92 182.14 586.59 188.9 593 174.33"/><rect class="cls-16" x="407" y="78.33" width="114" height="57"/><path class="cls-17" d="M520,79.33v55H408v-55H520m2-2H406v59H522v-59Z"/><rect class="cls-18" x="463" y="30.33" width="2" height="116" transform="translate(375.67 552.33) rotate(-90)"/><rect class="cls-18" x="416" y="77.33" width="2" height="59"/><text class="cls-12" transform="translate(459.93 109.33)">Git<tspan class="cls-13" x="-22.92" y="16">r</tspan><tspan x="-17.86" y="16">eposi</tspan><tspan class="cls-25" x="16.11" y="16">t</tspan><tspan x="20.96" y="16">o</tspan><tspan class="cls-27" x="28.8" y="16">r</tspan><tspan x="34.08" y="16">y</tspan></text><path class="cls-28" d="M90,146.74c3.49,12.5,19.62,20.68,94,20.59"/><polygon class="cls-36" points="89 136.33 84.74 151.66 90.31 147.49 96.69 150.26 89 136.33"/><path class="cls-28" d="M343.36,146.77c-1.56,10.64-6.21,15.44-16.36,18.56"/><polygon class="cls-36" points="344 136.33 336.94 150.59 343.2 147.54 348.95 151.46 344 136.33"/><path class="cls-28" d="M281,206.33c-.14-20.45,26-35,46-41"/><path class="cls-28" d="M217.64,146.77c1.56,10.64,6.21,15.44,16.36,18.56"/><polygon class="cls-36" points="217 136.33 212.05 151.46 217.8 147.54 224.06 150.59 217 136.33"/><path class="cls-28" d="M280,206.33c.14-20.45-26-35-46-41"/><path class="cls-28" d="M462.38,146.49c-7,12.65-29.83,20.91-83.38,20.84"/><polygon class="cls-36" points="464.87 136.33 455.11 148.9 461.85 147.15 466.7 152.14 464.87 136.33"/></svg>