<svg id="both_clusters" data-name="both clusters" xmlns="http://www.w3.org/2000/svg" viewBox="0 0 612 716.9"><defs><style>.cls-1,.cls-15,.cls-3{fill:none;}.cls-1,.cls-5{stroke:#40b4a7;}.cls-1,.cls-15,.cls-3,.cls-5,.cls-6{stroke-miterlimit:10;}.cls-2{opacity:0.5;}.cls-3,.cls-6{stroke:#43b7a9;}.cls-3{stroke-width:2px;}.cls-4{fill:#43b7a9;}.cls-5,.cls-6{fill:#fff;}.cls-17,.cls-18,.cls-19,.cls-20,.cls-21,.cls-7{font-size:18px;}.cls-12,.cls-16,.cls-22,.cls-47,.cls-48,.cls-7{fill:#231f20;}.cls-16,.cls-22,.cls-7{font-family:IBMPlexSans-Bold, IBM Plex Sans;}.cls-16,.cls-22,.cls-47,.cls-7{font-weight:700;}.cls-8{letter-spacing:-0.01em;}.cls-9{letter-spacing:0em;}.cls-10{letter-spacing:-0.01em;}.cls-11,.cls-21{letter-spacing:0em;}.cls-13{fill:#e6e7e8;}.cls-14{fill:#44bead;}.cls-15{stroke:#3c71ad;}.cls-16{font-size:14px;}.cls-17,.cls-18,.cls-19,.cls-20,.cls-21,.cls-47{font-family:IBMPlexSans-SemiBold, IBM Plex Sans;}.cls-18{letter-spacing:0em;}.cls-19{letter-spacing:-0.01em;}.cls-20{letter-spacing:-0.01em;}.cls-22{font-size:11px;}.cls-23,.cls-48{font-size:10px;}.cls-24{letter-spacing:-0.07em;}.cls-25{letter-spacing:0em;}.cls-26{letter-spacing:0em;}.cls-27{letter-spacing:0em;}.cls-28{letter-spacing:-0.03em;}.cls-29{letter-spacing:-0.01em;}.cls-30{letter-spacing:-0.01em;}.cls-31{letter-spacing:0em;}.cls-32{letter-spacing:0em;}.cls-33,.cls-47{font-size:12px;}.cls-33{fill:#010101;font-family:IBMPlexSans, IBM Plex Sans;}.cls-34{letter-spacing:-0.01em;}.cls-35{letter-spacing:0em;}.cls-36{letter-spacing:-0.01em;}.cls-37{letter-spacing:-0.01em;}.cls-38{letter-spacing:-0.08em;}.cls-39{letter-spacing:0em;}.cls-40{letter-spacing:0em;}.cls-41{letter-spacing:-0.01em;}.cls-42{letter-spacing:-0.01em;}.cls-43{letter-spacing:0em;}.cls-44{letter-spacing:0em;}.cls-45{letter-spacing:0em;}.cls-46{letter-spacing:-0.08em;}.cls-48{font-family:MyriadPro-Regular, Myriad Pro;}.cls-49{fill:#4776bb;}.cls-50{letter-spacing:-0.01em;}.cls-51{letter-spacing:-0.01em;}.cls-52{letter-spacing:-0.01em;}</style></defs><title>hub_managed</title><rect class="cls-1" x="119.12" y="410.81" width="421.61" height="278.64" rx="12" ry="12"/><g class="cls-2"><path class="cls-3" d="M504.81,238c106.77,56.3,79.48,115.23,9.22,152.56"/><polygon class="cls-4" points="503.86 242.66 499.07 235.08 508.04 234.72 503.86 242.66"/></g><g id="managed_cluster" data-name="managed cluster"><rect id="managed_cluster-2" data-name="managed cluster" class="cls-5" x="102.54" y="398.66" width="427.99" height="278.64" rx="12.11" ry="12.11"/></g><g id="managed_cluster-3" data-name="managed cluster"><rect id="managed_cluster-4" data-name="managed cluster" class="cls-5" x="92.29" y="387.62" width="427.99" height="278.64" rx="12" ry="12"/></g><rect id="managed_cluster-5" data-name="managed cluster" class="cls-6" x="81.93" y="371.54" width="427.99" height="284.42" rx="12" ry="12" transform="translate(591.86 1027.5) rotate(180)"/><text></text><text class="cls-7" transform="translate(214.86 424.57) scale(1.08 1)">Mana<tspan class="cls-8" x="45.95" y="0">g</tspan><tspan class="cls-9" x="55.78" y="0">ed clu</tspan><tspan class="cls-10" x="106.58" y="0">s</tspan><tspan class="cls-11" x="115.5" y="0">t</tspan><tspan class="cls-9" x="122.33" y="0">ers</tspan></text><g id="user"><path id="body" class="cls-12" d="M60,51.81H81.77a5,5,0,0,1,5,5v5.56a0,0,0,0,1,0,0H55a0,0,0,0,1,0,0V56.81A5,5,0,0,1,60,51.81Z"/><path id="Head" class="cls-12" d="M71.13,21.91h0A14.52,14.52,0,0,0,56.36,36.16a14.78,14.78,0,0,0,29.55,0A14.52,14.52,0,0,0,71.13,21.91"/></g><g id="component"><path class="cls-13" d="M276.67,195.89h80.91a19.54,19.54,0,0,1,19.54,19.54v29.91a19.55,19.55,0,0,1-19.55,19.55H276.67a19.55,19.55,0,0,1-19.55-19.55V215.43A19.55,19.55,0,0,1,276.67,195.89Z"/><path class="cls-14" d="M357.58,196.89a18.56,18.56,0,0,1,18.54,18.54v29.91a18.57,18.57,0,0,1-18.54,18.55H276.67a18.57,18.57,0,0,1-18.55-18.55V215.43a18.57,18.57,0,0,1,18.55-18.54h80.91m0-2H276.67a20.55,20.55,0,0,0-20.55,20.54v29.91a20.55,20.55,0,0,0,20.55,20.55h80.91a20.55,20.55,0,0,0,20.54-20.55V215.43a20.55,20.55,0,0,0-20.54-20.54Z"/></g><g id="ui"><rect class="cls-13" x="158" y="125.55" width="118" height="69" rx="19.55" ry="19.55"/><path class="cls-14" d="M256.45,126.55A18.57,18.57,0,0,1,275,145.1V175a18.56,18.56,0,0,1-18.55,18.54h-78.9A18.56,18.56,0,0,1,159,175V145.1a18.57,18.57,0,0,1,18.55-18.55h78.9m0-2h-78.9A20.55,20.55,0,0,0,157,145.1V175a20.54,20.54,0,0,0,20.55,20.54h78.9A20.54,20.54,0,0,0,277,175V145.1a20.55,20.55,0,0,0-20.55-20.55Z"/></g><g id="search"><path class="cls-13" d="M377.54,125.55h78.91A19.55,19.55,0,0,1,476,145.1V175a19.54,19.54,0,0,1-19.54,19.54H377.55A19.55,19.55,0,0,1,358,175V145.1A19.54,19.54,0,0,1,377.54,125.55Z"/><path class="cls-14" d="M456.45,126.55A18.57,18.57,0,0,1,475,145.1V175a18.56,18.56,0,0,1-18.55,18.54h-78.9A18.56,18.56,0,0,1,359,175V145.1a18.57,18.57,0,0,1,18.55-18.55h78.9m0-2h-78.9A20.55,20.55,0,0,0,357,145.1V175a20.54,20.54,0,0,0,20.55,20.54h78.9A20.54,20.54,0,0,0,477,175V145.1a20.55,20.55,0,0,0-20.55-20.55Z"/></g><rect id="Hub" class="cls-15" x="124.67" y="75.17" width="373.33" height="274.51" rx="12" ry="12"/><text></text><text class="cls-16" transform="translate(143.03 104.26) scale(1.08 1)"> <tspan class="cls-17" x="3.3" y="0">IBM Mu</tspan><tspan class="cls-18" x="67.06" y="0">l</tspan><tspan class="cls-17" x="72.26" y="0">ticloud Mana</tspan><tspan class="cls-19" x="179.65" y="0">g</tspan><tspan class="cls-17" x="189.35" y="0">er hub clu</tspan><tspan class="cls-20" x="272.04" y="0">s</tspan><tspan class="cls-21" x="280.88" y="0">t</tspan><tspan class="cls-17" x="287.54" y="0">er</tspan></text><text></text><text class="cls-22" transform="translate(184.45 159.26) scale(0.96 1)">Management <tspan x="15" y="14.4">console</tspan></text><text></text><text class="cls-22" transform="translate(275.79 212.33) scale(0.94 1)"> <tspan class="cls-23" x="1.3" y="12">- Governance and risk</tspan><tspan class="cls-23" x="1.3" y="24">- Application</tspan><tspan class="cls-23" x="1.3" y="36">- Channel</tspan><tspan class="cls-23" x="1.3" y="49.2">- Subscription</tspan><tspan x="67.45" y="49.2"> </tspan></text><text class="cls-22" transform="translate(397.71 156.62)">Search <tspan x="-8.82" y="15.3">aggregator</tspan></text><g id="arrow" class="cls-2"><path class="cls-3" d="M73.88,408.3c-91.41-41.16-62.28-154.06,50.79-178.84"/><polygon class="cls-4" points="74.5 403.59 79.83 410.81 70.91 411.81 74.5 403.59"/></g><path class="cls-13" d="M377.54,269.22h78.91A19.55,19.55,0,0,1,476,288.77v29.91a19.54,19.54,0,0,1-19.54,19.54H377.54A19.54,19.54,0,0,1,358,318.68V288.77A19.54,19.54,0,0,1,377.54,269.22Z"/><path class="cls-14" d="M456.45,270.22A18.57,18.57,0,0,1,475,288.77v29.91a18.57,18.57,0,0,1-18.55,18.54h-78.9A18.57,18.57,0,0,1,359,318.68V288.77a18.57,18.57,0,0,1,18.55-18.55h78.9m0-2h-78.9A20.55,20.55,0,0,0,357,288.77v29.91a20.55,20.55,0,0,0,20.55,20.54h78.9A20.55,20.55,0,0,0,477,318.68V288.77a20.55,20.55,0,0,0-20.55-20.55Z"/><rect class="cls-13" x="158" y="268.55" width="118" height="69" rx="19.55" ry="19.55"/><path class="cls-14" d="M256.45,269.55A18.57,18.57,0,0,1,275,288.1V318a18.56,18.56,0,0,1-18.55,18.54h-78.9A18.56,18.56,0,0,1,159,318V288.1a18.57,18.57,0,0,1,18.55-18.55h78.9m0-2h-78.9A20.55,20.55,0,0,0,157,288.1V318a20.54,20.54,0,0,0,20.55,20.54h78.9A20.54,20.54,0,0,0,277,318V288.1a20.55,20.55,0,0,0-20.55-20.55Z"/><text class="cls-22" transform="translate(187.91 306.79) scale(0.96 1)">- <tspan class="cls-24" x="7.03" y="0">T</tspan><tspan x="12.74" y="0">opolo</tspan><tspan class="cls-25" x="41.37" y="0">g</tspan><tspan class="cls-26" x="47.5" y="0">y</tspan><tspan x="0" y="13.2">- Sea</tspan><tspan class="cls-27" x="26.33" y="13.2">r</tspan><tspan x="30.72" y="13.2">ch</tspan></text><text></text><text class="cls-22" transform="translate(390.4 301.62) scale(0.96 1)"><tspan class="cls-28">F</tspan><tspan x="6.08" y="0">ede</tspan><tspan class="cls-29" x="25.13" y="0">r</tspan><tspan class="cls-30" x="29.42" y="0">a</tspan><tspan class="cls-31" x="35.62" y="0">t</tspan><tspan class="cls-32" x="39.79" y="0">ed </tspan><tspan x="-0.54" y="13.2">moni</tspan><tspan class="cls-31" x="25.2" y="13.2">t</tspan><tspan x="29.37" y="13.2">oring</tspan></text><text class="cls-33" transform="translate(98.37 33.33) scale(1.01 1)">In<tspan class="cls-34" x="11.62" y="0">s</tspan><tspan x="17.38" y="0">ta</tspan><tspan class="cls-35" x="28" y="0">l</tspan><tspan x="31.2" y="0">l IBM Mu</tspan><tspan class="cls-36" x="79.07" y="0">l</tspan><tspan x="82.27" y="0">ticloud Mana</tspan><tspan class="cls-37" x="151.49" y="0">g</tspan><tspan x="157.75" y="0">e</tspan><tspan class="cls-38" x="164.34" y="0">r</tspan><tspan x="167.78" y="0">.</tspan><tspan x="0" y="14.4">Impo</tspan><tspan class="cls-39" x="28.96" y="14.4">r</tspan><tspan class="cls-40" x="33.41" y="14.4">t mana</tspan><tspan class="cls-41" x="70.56" y="14.4">g</tspan><tspan x="76.82" y="14.4">ed clu</tspan><tspan class="cls-42" x="109.32" y="14.4">s</tspan><tspan class="cls-43" x="115.08" y="14.4">t</tspan><tspan x="119.24" y="14.4">ers </tspan><tspan x="0" y="28.8">f</tspan><tspan class="cls-35" x="3.89" y="28.8">r</tspan><tspan x="8.23" y="28.8">om the hub clu</tspan><tspan class="cls-34" x="88.25" y="28.8">s</tspan><tspan class="cls-44" x="94.01" y="28.8">t</tspan><tspan class="cls-45" x="98.17" y="28.8">e</tspan><tspan class="cls-46" x="104.76" y="28.8">r</tspan><tspan class="cls-45" x="108.2" y="28.8">.</tspan></text><text class="cls-47" transform="translate(48.53 286.73)">Management</text><text class="cls-47" transform="translate(505.5 229.89)">Communication</text><text class="cls-22" transform="translate(269.33 212) scale(0.94 1)">Controllers:</text><text class="cls-48" transform="translate(326.63 212)"> </text><text class="cls-22" transform="translate(179.49 291.57) scale(0.94 1)">APIs:</text><path class="cls-13" d="M129.84,461.7h78.91a19.55,19.55,0,0,1,19.55,19.55v29.91a19.55,19.55,0,0,1-19.55,19.55H129.84a19.54,19.54,0,0,1-19.54-19.54V481.24A19.55,19.55,0,0,1,129.84,461.7Z"/><path class="cls-49" d="M208.75,462.7a18.56,18.56,0,0,1,18.54,18.54v29.91a18.57,18.57,0,0,1-18.54,18.55H129.84a18.57,18.57,0,0,1-18.55-18.55V481.24a18.57,18.57,0,0,1,18.55-18.54h78.91m0-2H129.84a20.55,20.55,0,0,0-20.55,20.54v29.91a20.55,20.55,0,0,0,20.55,20.55h78.91a20.55,20.55,0,0,0,20.54-20.55V481.24a20.55,20.55,0,0,0-20.54-20.54Z"/><text class="cls-22" transform="translate(139.6 487.22)">Applic<tspan class="cls-50" x="33.08" y="0">a</tspan><tspan x="39.27" y="0">tion </tspan><tspan x="6.92" y="13.2">mana</tspan><tspan class="cls-50" x="35.83" y="13.2">g</tspan><tspan x="41.84" y="13.2">er </tspan><tspan x="-6.86" y="26.4">(Subscri</tspan><tspan class="cls-50" x="35.79" y="26.4">p</tspan><tspan x="42.41" y="26.4">tion)</tspan></text><path class="cls-13" d="M260.29,461.7H339.2a19.55,19.55,0,0,1,19.55,19.55v29.91A19.54,19.54,0,0,1,339.2,530.7H260.29a19.54,19.54,0,0,1-19.54-19.54V481.24A19.55,19.55,0,0,1,260.29,461.7Z"/><path class="cls-49" d="M339.2,462.7a18.57,18.57,0,0,1,18.55,18.54v29.91A18.57,18.57,0,0,1,339.2,529.7H260.29a18.57,18.57,0,0,1-18.54-18.55V481.24a18.56,18.56,0,0,1,18.54-18.54H339.2m0-2H260.29a20.55,20.55,0,0,0-20.54,20.54v29.91a20.55,20.55,0,0,0,20.54,20.55H339.2a20.55,20.55,0,0,0,20.55-20.55V481.24A20.55,20.55,0,0,0,339.2,460.7Z"/><text></text><text class="cls-22" transform="translate(275.02 493.36) scale(0.96 1)">G<tspan class="cls-51" x="7.91" y="0">ov</tspan><tspan class="cls-32" x="19.85" y="0">ernan</tspan><tspan class="cls-27" x="49.85" y="0">c</tspan><tspan x="55.48" y="0">e </tspan><tspan x="-12.73" y="13.2">and risk mana</tspan><tspan class="cls-30" x="60.36" y="13.2">g</tspan><tspan x="66.36" y="13.2">er</tspan></text><path class="cls-13" d="M389.31,461.7h78.91a19.55,19.55,0,0,1,19.55,19.55v29.91a19.54,19.54,0,0,1-19.54,19.54H389.31a19.54,19.54,0,0,1-19.54-19.54V481.24A19.55,19.55,0,0,1,389.31,461.7Z"/><path class="cls-49" d="M468.22,462.7a18.57,18.57,0,0,1,18.55,18.54v29.91a18.57,18.57,0,0,1-18.55,18.55H389.31a18.57,18.57,0,0,1-18.54-18.55V481.24a18.56,18.56,0,0,1,18.54-18.54h78.91m0-2H389.31a20.55,20.55,0,0,0-20.54,20.54v29.91a20.55,20.55,0,0,0,20.54,20.55h78.91a20.55,20.55,0,0,0,20.55-20.55V481.24a20.55,20.55,0,0,0-20.55-20.54Z"/><text></text><text class="cls-22" transform="translate(405.02 495.9) scale(0.96 1)">Certificate<tspan x="3.2" y="13.2" xml:space="preserve"> manager</tspan></text><path class="cls-13" d="M193.47,551.13h78.91a19.55,19.55,0,0,1,19.55,19.55v29.91a19.54,19.54,0,0,1-19.54,19.54H193.47a19.54,19.54,0,0,1-19.54-19.54V570.68A19.55,19.55,0,0,1,193.47,551.13Z"/><path class="cls-49" d="M272.37,552.13a18.57,18.57,0,0,1,18.55,18.55v29.91a18.57,18.57,0,0,1-18.55,18.54h-78.9a18.57,18.57,0,0,1-18.55-18.54V570.68a18.57,18.57,0,0,1,18.55-18.55h78.9m0-2h-78.9a20.55,20.55,0,0,0-20.55,20.55v29.91a20.55,20.55,0,0,0,20.55,20.54h78.9a20.55,20.55,0,0,0,20.55-20.54V570.68a20.55,20.55,0,0,0-20.55-20.55Z"/><path class="cls-13" d="M331.87,551.13h78.91a19.55,19.55,0,0,1,19.55,19.55v29.91a19.54,19.54,0,0,1-19.54,19.54H331.87a19.54,19.54,0,0,1-19.54-19.54V570.68A19.55,19.55,0,0,1,331.87,551.13Z"/><path class="cls-49" d="M410.78,552.13a18.57,18.57,0,0,1,18.55,18.55v29.91a18.57,18.57,0,0,1-18.55,18.54H331.87a18.56,18.56,0,0,1-18.54-18.54V570.68a18.57,18.57,0,0,1,18.54-18.55h78.91m0-2H331.87a20.55,20.55,0,0,0-20.54,20.55v29.91a20.55,20.55,0,0,0,20.54,20.54h78.91a20.55,20.55,0,0,0,20.55-20.54V570.68a20.55,20.55,0,0,0-20.55-20.55Z"/><text></text><text class="cls-22" transform="translate(209.36 583.08) scale(0.96 1)"><tspan class="cls-24">T</tspan><tspan x="5.71" y="0">opolo</tspan><tspan class="cls-25" x="34.34" y="0">g</tspan><tspan class="cls-26" x="40.47" y="0">y </tspan><tspan class="cls-27" x="1.92" y="13.2">c</tspan><tspan x="7.55" y="13.2">o</tspan><tspan class="cls-51" x="13.76" y="13.2">l</tspan><tspan class="cls-32" x="17" y="13.2">lec</tspan><tspan class="cls-31" x="32.2" y="13.2">t</tspan><tspan x="36.37" y="13.2">or</tspan></text><text></text><text class="cls-22" transform="translate(356.25 582.45) scale(0.96 1)">Sea<tspan class="cls-52" x="19.3" y="0">r</tspan><tspan x="23.69" y="0">ch </tspan><tspan class="cls-27" x="-3.28" y="13.2">c</tspan><tspan x="2.35" y="13.2">o</tspan><tspan class="cls-51" x="8.55" y="13.2">l</tspan><tspan class="cls-32" x="11.8" y="13.2">lec</tspan><tspan class="cls-31" x="27" y="13.2">t</tspan><tspan x="31.17" y="13.2">or</tspan></text></svg>