<?xml version="1.0" encoding="utf-8"?>
<!-- Generator: Adobe Illustrator 22.0.0, SVG Export Plug-In . SVG Version: 6.00 Build 0)  -->
<svg version="1.1" xmlns="http://www.w3.org/2000/svg" xmlns:xlink="http://www.w3.org/1999/xlink" x="0px" y="0px"
	 viewBox="0 0 612 398" style="enable-background:new 0 0 612 398;" xml:space="preserve">
<style type="text/css">
	.st0{fill:#FFFFFF;stroke:#000000;stroke-miterlimit:10;}
	.st1{fill:none;stroke:#000000;stroke-miterlimit:10;}
	.st2{font-family:'IBMPlexSans';}
	.st3{font-size:14px;}
	.st4{font-size:12px;}
	.st5{fill:none;}
	.st6{fill:none;stroke:#000000;stroke-miterlimit:10;stroke-dasharray:12.1143,12.1143;}
	.st7{font-family:'IBMPlexSans-Bold';}
</style>
<g id="Layer_1">
	<rect x="398.3" y="51.8" class="st0" width="163.7" height="48.1"/>
	<rect x="398.3" y="189.2" class="st0" width="163.7" height="48.1"/>
	<rect x="224.1" y="332.3" class="st0" width="163.7" height="48.1"/>
	<rect x="45.2" y="51.8" class="st0" width="163.7" height="48.1"/>
	<rect x="45.2" y="257.3" class="st0" width="163.7" height="48.1"/>
	<g>
		<g>
			<line class="st1" x1="208.9" y1="75.8" x2="392.4" y2="75.8"/>
			<g>
				<polygon points="389.6,79.5 391.1,75.8 389.6,72.1 398.3,75.8 				"/>
			</g>
		</g>
	</g>
	<line class="st1" x1="127" y1="99.9" x2="127" y2="216"/>
	<g>
		<g>
			<line class="st1" x1="392.4" y1="216" x2="127" y2="216"/>
			<g>
				<polygon points="389.6,212.3 391.1,216 389.6,219.7 398.3,216 				"/>
			</g>
		</g>
	</g>
	<g>
		<g>
			<line class="st1" x1="480.2" y1="105.8" x2="480.2" y2="189.2"/>
			<g>
				<polygon points="476.5,108.7 480.2,107.1 483.9,108.7 480.2,99.9 				"/>
			</g>
		</g>
	</g>
	<g>
		<g>
			<line class="st1" x1="480.2" y1="245" x2="480.2" y2="356.4"/>
			<g>
				<polygon points="476.5,247.8 480.2,246.2 483.9,247.8 480.2,239 				"/>
			</g>
		</g>
	</g>
	<line class="st1" x1="387.9" y1="356.4" x2="480.2" y2="356.4"/>
	<line class="st1" x1="224.1" y1="356.4" x2="127" y2="356.4"/>
	<g>
		<g>
			<line class="st1" x1="127" y1="356.4" x2="127" y2="311.3"/>
			<g>
				<polygon points="130.7,314.2 127,312.6 123.3,314.2 127,305.4 				"/>
			</g>
		</g>
	</g>
	<g>
		<g>
			<line class="st1" x1="214.9" y1="282.5" x2="434" y2="282.5"/>
			<g>
				<polygon points="217.7,286.2 216.1,282.5 217.7,278.8 208.9,282.5 				"/>
			</g>
		</g>
	</g>
	<line class="st1" x1="434" y1="282.5" x2="434" y2="237.3"/>
	<text transform="matrix(1 0 0 1 262.2686 362.978)" class="st2 st3">Docker client</text>
	<text transform="matrix(1 0 0 1 55.833 285.5933)" class="st2 st3">private Docker registry</text>
	<text transform="matrix(1 0 0 1 59.3887 82.5386)" class="st2 st3">management console</text>
	<text transform="matrix(1 0 0 1 405.3408 82.5386)" class="st2 st3">authentication manager</text>
	<text transform="matrix(1 0 0 1 431.7373 219.231)" class="st2 st3">image manager</text>
	<text transform="matrix(1 0 0 1 198.5148 69.7414)" class="st2 st4">                        authentication</text>
	<text transform="matrix(1 0 0 1 419.0771 147.3735)" class="st2 st4">                         authentication</text>
	<text transform="matrix(1 0 0 1 125.5728 136.3848)"><tspan x="0" y="0" class="st2 st4">  view</tspan><tspan x="-16.5" y="14.4" class="st2 st4">        remove</tspan><tspan x="-13.7" y="28.8" class="st2 st4">       update</tspan></text>
	<text transform="matrix(1 0 0 1 48.8506 326.4946)"><tspan x="0" y="0" class="st2 st4">                       </tspan><tspan x="-13.2" y="14.4" class="st2 st4">                       push</tspan><tspan x="-7.3" y="28.8" class="st2 st4">                     pull</tspan></text>
	<text transform="matrix(1 0 0 1 469.1172 282.5386)"><tspan x="0" y="0" class="st2 st4">                  </tspan><tspan x="-39.8" y="14.4" class="st2 st4">                     authorization</tspan></text>
	<text transform="matrix(1 0 0 1 212.1502 256.0776)"><tspan x="0" y="0" class="st2 st4"> list</tspan><tspan x="-43" y="14.4" class="st2 st4">                remove</tspan></text>
	<line class="st5" x1="17.7" y1="314.4" x2="21" y2="314.4"/>
	<g>
		<g>
			<line class="st1" x1="17.1" y1="323.2" x2="23.1" y2="323.2"/>
			<line class="st6" x1="35.2" y1="323.2" x2="562.2" y2="323.2"/>
			<line class="st1" x1="568.3" y1="323.2" x2="574.3" y2="323.2"/>
		</g>
	</g>
	<text transform="matrix(1 0 0 1 248.3514 26.1837)" class="st7 st4">IBM Cloud Private</text>
</g>
<g id="Layer_2">
</g>
</svg>
