<svg id="Layer_1" data-name="Layer 1" xmlns="http://www.w3.org/2000/svg" viewBox="0 0 677.98 565.32"><defs><style>.cls-1,.cls-14,.cls-15{fill:none;stroke-miterlimit:10;}.cls-1{stroke:#3c2415;stroke-width:2px;}.cls-2{fill:#f5f7fa;}.cls-3{font-size:20px;fill:#4d6bb3;font-family:IBMPlexSans-SemiBold, IBM Plex Sans;font-weight:700;}.cls-4{letter-spacing:-0.01em;}.cls-5{letter-spacing:-0.01em;}.cls-6{letter-spacing:0em;}.cls-7{letter-spacing:0em;}.cls-8{letter-spacing:0.01em;}.cls-9{letter-spacing:-0.01em;}.cls-10{font-size:13.56px;fill:#010101;font-family:IBMPlexSans-Italic, IBM Plex Sans;font-style:italic;}.cls-11{letter-spacing:-0.01em;}.cls-12{letter-spacing:-0.03em;}.cls-13{letter-spacing:0em;}.cls-14,.cls-15{stroke:#010101;}.cls-14{stroke-width:1.09px;stroke-dasharray:3 4;}.cls-15{stroke-width:1.09px;}.cls-16{letter-spacing:-0.01em;}.cls-17{letter-spacing:0em;}.cls-18{letter-spacing:-0.01em;}.cls-19{fill:#f2f6fc;}.cls-20{fill:#4272b8;}.cls-21{font-size:16px;}.cls-21,.cls-22{fill:#231f20;font-family:IBMPlexSans, IBM Plex Sans;}.cls-22{font-size:17px;}</style></defs><title>install_cloud_pak_mcm_mgmt</title><line class="cls-1" x1="299.15" y1="177.07" x2="299.15" y2="229.8"/><rect class="cls-2" width="677.98" height="91.05"/><text class="cls-3" transform="translate(24.94 70.51)">in<tspan class="cls-4" x="17.28" y="0">s</tspan><tspan x="27.1" y="0">ta</tspan><tspan class="cls-5" x="45.76" y="0">l</tspan><tspan class="cls-6" x="51.5" y="0">l</tspan><tspan class="cls-7" x="57.38" y="0">a</tspan><tspan x="68.48" y="0">tion </tspan><tspan class="cls-4" x="109.22" y="0">ov</tspan><tspan x="130.64" y="0">e</tspan><tspan class="cls-8" x="141.8" y="0">r</tspan><tspan x="149.82" y="0">vi</tspan><tspan class="cls-9" x="165.82" y="0">e</tspan><tspan x="176.88" y="0">w</tspan></text><text class="cls-10" transform="translate(485.14 84.93)">O<tspan class="cls-11" x="9.21" y="0">p</tspan><tspan x="16.89" y="0">tional</tspan></text><text class="cls-10" transform="translate(590.86 84.93)"><tspan class="cls-12">R</tspan><tspan x="8.07" y="0">equi</tspan><tspan class="cls-13" x="33.95" y="0">r</tspan><tspan x="38.82" y="0">ed</tspan></text><line class="cls-14" x1="231.9" y1="469.6" x2="231.9" y2="393.96"/><line class="cls-14" x1="398.32" y1="408.54" x2="396.97" y2="275.3"/><line class="cls-14" x1="231.9" y1="345.58" x2="231.9" y2="269.94"/><line class="cls-14" x1="485.34" y1="64.56" x2="560.98" y2="64.56"/><line class="cls-15" x1="590.18" y1="64.56" x2="665.82" y2="64.56"/><text class="cls-3" transform="translate(24.94 35.84)">IBM Cloud <tspan class="cls-16" x="101.22" y="0">P</tspan><tspan x="113.76" y="0">ak </tspan><tspan class="cls-17" x="140.9" y="0">f</tspan><tspan x="147.82" y="0">or Mu</tspan><tspan class="cls-9" x="199.74" y="0">l</tspan><tspan x="205.52" y="0">ticloud Mana</tspan><tspan class="cls-18" x="324.83" y="0">g</tspan><tspan x="335.62" y="0">ement</tspan></text><rect class="cls-19" x="160.06" y="113.47" width="269.86" height="75.77" rx="24" ry="24"/><path class="cls-20" d="M405.92,114.47a23,23,0,0,1,23,23v27.77a23,23,0,0,1-23,23H184.06a23,23,0,0,1-23-23V137.47a23,23,0,0,1,23-23H405.92m0-2H184.06a25,25,0,0,0-25,25v27.77a25,25,0,0,0,25,25H405.92a25,25,0,0,0,25-25V137.47a25,25,0,0,0-25-25Z"/><text class="cls-21" transform="translate(178.63 147.67)">Download the IBM Cloud Pak for <tspan x="29.66" y="19.2">Multicloud Management</tspan></text><rect class="cls-19" x="149.68" y="230.98" width="294.52" height="75.78"/><path class="cls-20" d="M443.2,232v73.78H150.68V232H443.2m2-2H148.68v77.78H445.2V230Z"/><text class="cls-22" transform="translate(183.37 262.64)">Install IBM Cloud Private and <tspan x="-17.42" y="20.4">configure IBM Multicloud Manager</tspan></text><rect class="cls-19" x="67.52" y="347.37" width="253.56" height="73.19"/><path class="cls-20" d="M320.08,348.37v71.19H68.52V348.37H320.08m2-2H66.52v75.19H322.08V346.37Z"/><text class="cls-22" transform="translate(167.78 380.31)">Install <tspan x="-72.16" y="20.4">IBM Cloud Event Manager</tspan></text><rect class="cls-19" x="67.52" y="470.6" width="253.56" height="73.19"/><path class="cls-20" d="M320.08,471.6v71.19H68.52V471.6H320.08m2-2H66.52v75.19H322.08V469.6Z"/><text class="cls-22" transform="translate(167.78 501.46)">Install <tspan x="-95.22" y="20.4">IBM Cloud Automation Manager</tspan></text><rect class="cls-19" x="345.26" y="407.44" width="253.56" height="75.77"/><path class="cls-20" d="M597.82,408.44v73.77H346.26V408.44H597.82m2-2H344.26v77.77H599.82V406.44Z"/><text class="cls-22" transform="translate(436.6 431.78)">Install <tspan x="-82.63" y="20.4">IBM Cloud App Management</tspan><tspan x="-42.54" y="40.8">technical preview </tspan></text></svg>