<svg id="Layer_1" data-name="Layer 1" xmlns="http://www.w3.org/2000/svg" viewBox="0 0 610.58 433.09"><defs><style>.cls-1{fill:#f8f2f3;}.cls-2{fill:#ee2247;}.cls-11,.cls-3{fill:#f9f9fa;}.cls-4{fill:#636464;}.cls-12,.cls-5{fill:none;}.cls-11,.cls-12,.cls-5{stroke:#636464;stroke-miterlimit:10;stroke-width:2px;}.cls-6{font-size:11px;}.cls-10,.cls-6{fill:#231f20;font-family:IBMPlexSans, IBM Plex Sans;}.cls-7{fill:#f2f6fc;}.cls-8{fill:#4272b8;}.cls-9{font-size:12px;}.cls-10{font-size:10px;}.cls-12{stroke-dasharray:2.77 2.77;}</style></defs><title>install_cp4mcm_2</title><rect class="cls-1" x="210.48" y="131.23" width="188.13" height="55.91"/><path class="cls-2" d="M397.61,132.23v53.91H211.48V132.23H397.61m2-2H209.48v57.91H399.61V130.23Z"/><path class="cls-3" d="M267.47,72.26a24,24,0,0,1,0-48h66a24,24,0,0,1,0,48Z"/><path class="cls-4" d="M333.47,25.26a23,23,0,0,1,0,46h-66a23,23,0,0,1,0-46h66m0-2h-66a25,25,0,0,0,0,50h66a25,25,0,0,0,0-50Z"/><path class="cls-3" d="M140.72,72.26a24,24,0,0,1,0-48h66a24,24,0,0,1,0,48Z"/><path class="cls-4" d="M206.72,25.26a23,23,0,0,1,0,46h-66a23,23,0,0,1,0-46h66m0-2h-66a25,25,0,0,0,0,50h66a25,25,0,0,0,0-50Z"/><line class="cls-5" x1="301.51" y1="188.14" x2="301.51" y2="214.09"/><polygon class="cls-4" points="293.33 207.47 294.8 206.1 301.51 213.33 308.23 206.1 309.69 207.47 301.51 216.26 293.33 207.47"/><text class="cls-6" transform="translate(268.51 154.44)">Install Red Hat <tspan x="-35.69" y="13.2">OpenShift Container Platform </tspan></text><rect class="cls-7" x="210.48" y="217.15" width="188.13" height="55.91"/><path class="cls-8" d="M397.61,218.15v53.91H211.48V218.15H397.61m2-2H209.48v57.91H399.61V216.15Z"/><text class="cls-6" transform="translate(250.98 239.8)">Install IBM Cloud Pak for <tspan x="4.99" y="13.2">Multicloud Mangement </tspan><tspan class="cls-9"><tspan x="61.67" y="27.6"> </tspan></tspan></text><rect class="cls-3" x="24.63" y="304.91" width="559.01" height="102.04"/><path class="cls-4" d="M582.64,305.91V406h-557v-100h557m2-2h-561V408h561v-104Z"/><text class="cls-6" transform="translate(212.87 322.32)">Install optional modules and products</text><text class="cls-6" transform="translate(132.77 50.17)">Your data center</text><text class="cls-6" transform="translate(275.65 50.16)">IBM Cloud</text><rect class="cls-7" x="39.53" y="336.47" width="121.54" height="55.91"/><path class="cls-8" d="M160.07,337.47v53.92H40.53V337.47H160.07m2-2H38.53v57.92H162.07V335.47Z"/><text class="cls-10" transform="translate(76.79 355.26)">IBM Cloud <tspan x="-16" y="12">App Management </tspan><tspan x="-33.93" y="24">(with Event Management)</tspan></text><rect class="cls-7" x="175.21" y="336.47" width="121.54" height="55.91"/><path class="cls-8" d="M295.75,337.47v53.92H176.21V337.47H295.75m2-2H174.21v57.92H297.75V335.47Z"/><text class="cls-10" transform="translate(210.85 360.94)">IBM Cloud <tspan x="-23.41" y="12">Automation Manager</tspan></text><line class="cls-11" x1="172.73" y1="102.51" x2="432.49" y2="102.11"/><line class="cls-5" x1="301.51" y1="102.11" x2="301.51" y2="128.06"/><polygon class="cls-4" points="293.33 121.43 294.8 120.07 301.51 127.29 308.23 120.07 309.69 121.43 301.51 130.23 293.33 121.43"/><path class="cls-3" d="M393.71,72.26a24,24,0,1,1,0-48h66a24,24,0,0,1,0,48Z"/><path class="cls-4" d="M459.71,25.26a23,23,0,0,1,0,46h-66a23,23,0,1,1,0-46h66m0-2h-66a25,25,0,1,0,0,50h66a25,25,0,0,0,0-50Z"/><text class="cls-6" transform="translate(385.52 44.8)">Third-party cloud <tspan x="19.55" y="13.2">providers</tspan></text><line class="cls-11" x1="173.72" y1="73.26" x2="173.72" y2="103.23"/><line class="cls-11" x1="301.51" y1="72.14" x2="301.51" y2="102.11"/><line class="cls-11" x1="431.5" y1="72.14" x2="431.5" y2="102.11"/><rect class="cls-1" x="447.4" y="337.38" width="119.33" height="54.09"/><path class="cls-2" d="M565.72,338.38v52.1H448.4v-52.1H565.72m2-2H446.4v56.1H567.72v-56.1Z"/><text class="cls-10" transform="translate(487.44 360.94)">Red Hat <tspan x="-14.01" y="12">Ansible Tower</tspan></text><rect class="cls-7" x="311.03" y="337.38" width="119.33" height="54.09"/><path class="cls-8" d="M429.36,338.38v52.1H312v-52.1H429.36m2-2H310v56.1H431.36v-56.1Z"/><text class="cls-10" transform="translate(340.43 363.33)"><tspan xml:space="preserve"> CloudForms</tspan></text><line class="cls-5" x1="301.51" y1="273.95" x2="301.51" y2="275.45"/><line class="cls-12" x1="301.51" y1="278.22" x2="301.51" y2="298.97"/><line class="cls-5" x1="301.51" y1="300.35" x2="301.51" y2="301.85"/><polygon class="cls-4" points="293.33 295.23 294.8 293.86 301.51 301.08 308.23 293.86 309.69 295.23 301.51 304.02 293.33 295.23"/></svg>