<?xml version="1.0" encoding="utf-8"?>
<svg id="Layer_1" data-name="Layer 1" xmlns="http://www.w3.org/2000/svg" viewBox="0 0 1029.55 518.91"><defs><style>.cls-1,.cls-10,.cls-11,.cls-12,.cls-13,.cls-16,.cls-2,.cls-3,.cls-37,.cls-38,.cls-39,.cls-4,.cls-6{fill:none;}.cls-1,.cls-17,.cls-2,.cls-3,.cls-37,.cls-38,.cls-39,.cls-4,.cls-5,.cls-6{stroke:#231f20;}.cls-1,.cls-10,.cls-11,.cls-12,.cls-13,.cls-14,.cls-15,.cls-16,.cls-17,.cls-2,.cls-3,.cls-37,.cls-38,.cls-39,.cls-4,.cls-5,.cls-6,.cls-7,.cls-8,.cls-9{stroke-miterlimit:10;}.cls-2{stroke-dasharray:12.38 12.38;}.cls-3{stroke-dasharray:11.56 11.56;}.cls-4{stroke-dasharray:11.47 11.47;}.cls-15,.cls-5,.cls-7,.cls-8,.cls-9{fill:#fff;}.cls-5,.cls-6{stroke-width:3px;}.cls-11,.cls-7{stroke:#fdd501;}.cls-10,.cls-11,.cls-12,.cls-13,.cls-14,.cls-7,.cls-8,.cls-9{stroke-width:2px;}.cls-12,.cls-8{stroke:#aa2323;}.cls-13,.cls-9{stroke:#71297c;}.cls-10,.cls-14{stroke:#3cb76d;}.cls-14{fill:#fdd501;}.cls-15,.cls-16{stroke:#21409a;}.cls-17{fill:#f26222;stroke-width:4px;}.cls-18{font-size:12px;}.cls-18,.cls-33{fill:#231f20;font-family:IBMPlexSans, IBM Plex Sans;}.cls-19{letter-spacing:-0.02em;}.cls-20{letter-spacing:-0.02em;}.cls-21{letter-spacing:0em;}.cls-22{letter-spacing:0em;}.cls-23{letter-spacing:-0.01em;}.cls-24{letter-spacing:-0.01em;}.cls-25{letter-spacing:-0.01em;}.cls-26{letter-spacing:0em;}.cls-27{letter-spacing:0em;}.cls-28{letter-spacing:-0.01em;}.cls-29{letter-spacing:0em;}.cls-30{letter-spacing:-0.01em;}.cls-31{letter-spacing:0em;}.cls-32{letter-spacing:-0.01em;}.cls-33{font-size:14px;}.cls-34{letter-spacing:-0.01em;}.cls-35{letter-spacing:0em;}.cls-36{letter-spacing:-0.01em;}.cls-37{stroke-dasharray:11.57 11.57;}.cls-38{stroke-dasharray:12.19 12.19;}.cls-39{stroke-dasharray:12.34 12.34;}.cls-40{letter-spacing:0em;}.cls-41{letter-spacing:-0.01em;}.cls-42{letter-spacing:-0.01em;}</style></defs><title>isolated_localized_distributed_infra</title><line class="cls-1" x1="377.56" y1="386.18" x2="383.26" y2="384.33"/><line class="cls-2" x1="395.04" y1="380.5" x2="601.04" y2="313.58"/><line class="cls-1" x1="606.93" y1="311.67" x2="612.64" y2="309.82"/><line class="cls-1" x1="377.56" y1="386.18" x2="382.63" y2="382.98"/><line class="cls-3" x1="392.41" y1="376.82" x2="602.67" y2="244.27"/><line class="cls-1" x1="607.56" y1="241.19" x2="612.64" y2="237.99"/><line class="cls-1" x1="377.56" y1="386.18" x2="380.18" y2="380.78"/><line class="cls-4" x1="385.19" y1="370.46" x2="482.86" y2="169.24"/><line class="cls-1" x1="485.36" y1="164.08" x2="487.98" y2="158.68"/><ellipse class="cls-5" cx="432.59" cy="275.3" rx="27.47" ry="28.02"/><line class="cls-6" x1="411.12" y1="257.81" x2="454.05" y2="292.78"/><line class="cls-6" x1="454.05" y1="257.81" x2="411.12" y2="292.78"/><rect class="cls-7" x="332.95" y="112.09" width="78.17" height="46.59" rx="12" ry="12"/><rect class="cls-7" x="447.86" y="112.09" width="78.17" height="46.59" rx="12" ry="12"/><rect class="cls-8" x="612.64" y="214.69" width="78.17" height="46.59" rx="12" ry="12"/><rect class="cls-8" x="612.64" y="286.52" width="78.17" height="46.59" rx="12" ry="12"/><rect class="cls-9" x="338.47" y="403" width="78.17" height="46.59" rx="12" ry="12"/><rect class="cls-9" x="448.9" y="403" width="78.17" height="46.59" rx="12" ry="12"/><rect class="cls-10" x="172.86" y="214.69" width="78.17" height="46.59" rx="12" ry="12"/><rect class="cls-10" x="172.86" y="286.52" width="78.17" height="46.59" rx="12" ry="12"/><line class="cls-11" x1="432.59" y1="247.27" x2="432.59" y2="208.68"/><line class="cls-12" x1="460.06" y1="275.3" x2="515.91" y2="275.3"/><line class="cls-13" x1="432.59" y1="303.32" x2="432.59" y2="345.27"/><line class="cls-14" x1="405.11" y1="275.3" x2="350" y2="275.3"/><line class="cls-11" x1="432.59" y1="208.68" x2="372.04" y2="208.68"/><line class="cls-11" x1="432.59" y1="208.68" x2="487.98" y2="208.68"/><line class="cls-12" x1="515.91" y1="275.3" x2="515.91" y2="309.82"/><line class="cls-12" x1="515.91" y1="275.3" x2="515.91" y2="237.99"/><line class="cls-13" x1="432.59" y1="345.27" x2="486.95" y2="345.27"/><line class="cls-10" x1="350" y1="275.3" x2="350" y2="237.99"/><line class="cls-10" x1="350" y1="268.22" x2="350" y2="302.74"/><line class="cls-11" x1="372.04" y1="208.68" x2="372.04" y2="158.68"/><line class="cls-11" x1="487.98" y1="208.68" x2="487.98" y2="158.68"/><line class="cls-12" x1="515.91" y1="237.99" x2="612.64" y2="237.99"/><line class="cls-13" x1="377.56" y1="345.27" x2="377.56" y2="403"/><line class="cls-13" x1="487.98" y1="345.27" x2="487.98" y2="403"/><line class="cls-10" x1="350" y1="237.99" x2="251.03" y2="237.99"/><line class="cls-10" x1="350" y1="302.74" x2="251.03" y2="302.74"/><line class="cls-13" x1="377.93" y1="345.27" x2="432.29" y2="345.27"/><ellipse class="cls-5" cx="815.11" cy="56.05" rx="27.47" ry="28.02"/><line class="cls-6" x1="793.65" y1="38.56" x2="836.58" y2="73.53"/><line class="cls-6" x1="836.58" y1="38.56" x2="793.65" y2="73.53"/><rect class="cls-15" x="51.75" y="449.59" width="78.17" height="46.59" rx="12" ry="12"/><line class="cls-16" x1="129.92" y1="472.89" x2="377.56" y2="472.89"/><line class="cls-16" x1="377.56" y1="472.89" x2="487.98" y2="472.89"/><line class="cls-16" x1="90.83" y1="449.59" x2="90.83" y2="84.07"/><line class="cls-16" x1="90.83" y1="84.07" x2="487.98" y2="84.07"/><line class="cls-16" x1="487.98" y1="472.89" x2="740.91" y2="472.89"/><line class="cls-16" x1="740.91" y1="472.89" x2="740.91" y2="237.99"/><line class="cls-16" x1="377.93" y1="449.59" x2="377.56" y2="472.89"/><line class="cls-16" x1="487.98" y1="449.59" x2="487.98" y2="472.89"/><line class="cls-16" x1="690.81" y1="318" x2="740.91" y2="318"/><line class="cls-16" x1="690.81" y1="237.99" x2="740.91" y2="237.99"/><line class="cls-16" x1="487.98" y1="84.07" x2="487.98" y2="112.09"/><line class="cls-16" x1="372.04" y1="84.07" x2="372.04" y2="112.09"/><line class="cls-16" x1="90.83" y1="237.99" x2="172.86" y2="237.99"/><line class="cls-16" x1="90.83" y1="318" x2="172.86" y2="318"/><circle class="cls-17" cx="377.93" cy="403" r="12.09"/><line class="cls-6" x1="766.18" y1="56.05" x2="766.18" y2="303.32"/><line class="cls-6" x1="690.81" y1="303.32" x2="766.18" y2="303.32"/><line class="cls-6" x1="766.18" y1="56.05" x2="787.64" y2="56.05"/><line class="cls-6" x1="766.18" y1="56.05" x2="51.75" y2="56.05"/><line class="cls-6" x1="51.75" y1="56.05" x2="51.75" y2="303.32"/><line class="cls-6" x1="51.75" y1="303.32" x2="172.86" y2="303.32"/><line class="cls-6" x1="526.03" y1="135.39" x2="766.18" y2="135.39"/><text class="cls-18" transform="translate(352.67 130.5)"><tspan class="cls-19">W</tspan><tspan x="10.51" y="0">or</tspan><tspan class="cls-20" x="21.64" y="0">k</tspan><tspan x="27.76" y="0">er</tspan><tspan x="-1.23" y="14.4">g</tspan><tspan class="cls-21" x="5.11" y="14.4">r</tspan><tspan class="cls-22" x="9.45" y="14.4">oup 1</tspan></text><text class="cls-18" transform="translate(471.88 130.5)"><tspan class="cls-23">P</tspan><tspan class="cls-24" x="7.15" y="0">r</tspan><tspan class="cls-25" x="11.5" y="0">o</tspan><tspan x="18.07" y="0">xy</tspan><tspan x="-5.53" y="14.4">g</tspan><tspan class="cls-24" x="0.8" y="14.4">r</tspan><tspan class="cls-26" x="5.15" y="14.4">oup 1</tspan></text><line class="cls-12" x1="515.91" y1="309.82" x2="612.64" y2="309.82"/><text class="cls-18" transform="translate(62.5 477.43)">Ope<tspan class="cls-27" x="22.04" y="0">r</tspan><tspan x="26.4" y="0">ations</tspan></text><text class="cls-18" transform="translate(342.18 430.84)">Cali<tspan class="cls-28" x="20.12" y="0">c</tspan><tspan class="cls-29" x="26.09" y="0">o </tspan><tspan class="cls-30" x="35.64" y="0">r</tspan><tspan x="39.98" y="0">ou</tspan><tspan class="cls-31" x="53.52" y="0">t</tspan><tspan class="cls-29" x="57.68" y="0">er </tspan><tspan class="cls-21" x="12.76" y="14.4">r</tspan><tspan x="17.1" y="14.4">eflec</tspan><tspan class="cls-27" x="43.46" y="14.4">t</tspan><tspan x="47.63" y="14.4">or</tspan></text><text class="cls-18" transform="translate(467 426.3)">Ma<tspan class="cls-32" x="16.15" y="0">s</tspan><tspan class="cls-27" x="21.91" y="0">t</tspan><tspan x="26.08" y="0">er </tspan><tspan x="6.41" y="14.4">node</tspan></text><text class="cls-33" transform="translate(405.11 170.27)">Finan<tspan class="cls-34" x="34.71" y="0">c</tspan><tspan class="cls-35" x="41.66" y="0">e</tspan></text><text class="cls-33" transform="translate(237.53 280.5)">Sales</text><text class="cls-33" transform="translate(595.35 280.5)">HR</text><text class="cls-33" transform="translate(390.02 465.78)">Mana<tspan class="cls-36" x="34.27" y="0">g</tspan><tspan x="41.58" y="0">ement</tspan></text><line class="cls-1" x1="377.93" y1="390.91" x2="377.45" y2="384.93"/><line class="cls-37" x1="376.5" y1="373.4" x2="360.05" y2="171.57"/><line class="cls-1" x1="359.58" y1="165.8" x2="359.09" y2="159.82"/><line class="cls-1" x1="377.56" y1="386.18" x2="373.66" y2="381.62"/><line class="cls-38" x1="365.75" y1="372.35" x2="258.89" y2="247.19"/><line class="cls-1" x1="254.93" y1="242.55" x2="251.03" y2="237.99"/><line class="cls-1" x1="377.56" y1="386.18" x2="372.42" y2="383.08"/><line class="cls-39" x1="361.85" y1="376.7" x2="261.45" y2="316.11"/><line class="cls-1" x1="256.17" y1="312.92" x2="251.03" y2="309.82"/><text class="cls-33" transform="translate(154.55 49.82)">Ex<tspan class="cls-40" x="15.26" y="0">t</tspan><tspan x="20.12" y="0">ernal net</tspan><tspan class="cls-41" x="76.03" y="0">w</tspan><tspan x="86.71" y="0">ork</tspan></text><text class="cls-18" transform="translate(632.35 232.75)"><tspan class="cls-19">W</tspan><tspan x="10.51" y="0">or</tspan><tspan class="cls-20" x="21.64" y="0">k</tspan><tspan x="27.76" y="0">er</tspan><tspan x="-1.23" y="14.4">g</tspan><tspan class="cls-21" x="5.11" y="14.4">r</tspan><tspan class="cls-22" x="9.45" y="14.4">oup 2</tspan></text><text class="cls-18" transform="translate(192.57 232.75)"><tspan class="cls-19">W</tspan><tspan x="10.51" y="0">or</tspan><tspan class="cls-20" x="21.64" y="0">k</tspan><tspan x="27.76" y="0">er</tspan><tspan x="-1.23" y="14.4">g</tspan><tspan class="cls-21" x="5.11" y="14.4">r</tspan><tspan class="cls-22" x="9.45" y="14.4">oup 3</tspan></text><text class="cls-18" transform="translate(636.65 303.32)"><tspan class="cls-23">P</tspan><tspan class="cls-24" x="7.15" y="0">r</tspan><tspan class="cls-25" x="11.5" y="0">o</tspan><tspan x="18.07" y="0">xy</tspan><tspan x="-5.53" y="14.4">g</tspan><tspan class="cls-24" x="0.8" y="14.4">r</tspan><tspan class="cls-26" x="5.15" y="14.4">oup 2</tspan></text><text class="cls-18" transform="translate(196.88 303.32)"><tspan class="cls-23">P</tspan><tspan class="cls-24" x="7.15" y="0">r</tspan><tspan class="cls-25" x="11.5" y="0">o</tspan><tspan x="18.07" y="0">xy</tspan><tspan x="-5.53" y="14.4">g</tspan><tspan class="cls-24" x="0.8" y="14.4">r</tspan><tspan class="cls-26" x="5.15" y="14.4">oup 3</tspan></text><text class="cls-18" transform="translate(767.61 49.82)"><tspan xml:space="preserve">                            Demilitari</tspan><tspan class="cls-42" x="131.7" y="0">z</tspan><tspan x="137.14" y="0">ed </tspan><tspan class="cls-23" x="153.52" y="0">z</tspan><tspan x="158.97" y="0">one net</tspan><tspan class="cls-21" x="199.54" y="0">w</tspan><tspan x="208.7" y="0">ork</tspan></text><line class="cls-1" x1="842.59" y1="56.05" x2="996.59" y2="56.05"/></svg>