<?xml version="1.0" encoding="utf-8"?>
<!-- Generator: Adobe Illustrator 22.0.0, SVG Export Plug-In . SVG Version: 6.00 Build 0)  -->
<svg version="1.1" id="Layer_1" xmlns="http://www.w3.org/2000/svg" xmlns:xlink="http://www.w3.org/1999/xlink" x="0px" y="0px"
	 viewBox="0 0 1080 1920" style="enable-background:new 0 0 1080 1920;" xml:space="preserve">
<style type="text/css">
	.st0{fill:none;stroke:#000000;stroke-width:4.7342;stroke-miterlimit:10;}
	.st1{font-family:'HelveticaNeue';}
	.st2{font-size:34px;}
	.st3{fill:#FAAD96;}
	.st4{fill:none;stroke:#000000;stroke-width:1.3286;stroke-miterlimit:10;stroke-dasharray:15.8447,15.8447;}
	.st5{fill:#CEF3D1;stroke:#000000;stroke-width:0.8128;stroke-miterlimit:10;}
	.st6{font-family:'IBMPlexSans';}
	.st7{font-size:25px;}
	.st8{fill:#E39D14;}
	.st9{fill:#FFFFFF;}
	.st10{opacity:0.9;fill:#FA9D14;enable-background:new    ;}
	.st11{font-size:26px;}
	.st12{fill:none;stroke:#FE8500;stroke-width:2;stroke-miterlimit:10;}
	.st13{fill:#FE8500;stroke:#FE8500;stroke-width:0.5538;stroke-miterlimit:10;}
	.st14{fill:none;stroke:#FE8500;stroke-width:2.0806;stroke-miterlimit:10;}
	.st15{font-family:'IBMPlexSans-Bold';}
	.st16{font-size:20px;}
	.st17{font-size:17px;}
	.st18{font-size:16px;}
	.st19{font-size:28px;}
	.st20{fill:none;stroke:#000000;stroke-width:2;stroke-miterlimit:10;}
	.st21{font-size:18px;}
	.st22{font-size:23px;}
	.st23{font-size:15px;}
	.st24{fill:none;stroke:#648FFF;stroke-width:1.3585;stroke-miterlimit:10;}
	.st25{fill:none;stroke:#648FFF;stroke-width:1.4957;stroke-miterlimit:10;}
	.st26{fill:#648FFF;}
	.st27{fill:none;stroke:#FE8500;stroke-width:0.4478;stroke-miterlimit:10;}
	.st28{fill:none;stroke:#648FFF;stroke-width:0.4478;stroke-miterlimit:10;}
	.st29{fill:#FBEAAE;}
	.st30{fill:none;stroke:#648FFF;stroke-width:1.3627;stroke-miterlimit:10;}
	.st31{fill:none;stroke:#648FFF;stroke-width:1.5003;stroke-miterlimit:10;}
	.st32{fill:none;stroke:#648FFF;stroke-width:1.61;stroke-miterlimit:10;}
	.st33{fill:#CEF3D1;}
	.st34{font-size:21px;}
	.st35{font-size:22px;}
	.st36{fill:none;stroke:#000000;stroke-width:3.4825;stroke-miterlimit:10;}
	.st37{font-size:30px;}
	.st38{fill:none;stroke:#648FFF;stroke-width:1.7615;stroke-miterlimit:10;}
	.st39{fill:none;stroke:#648FFF;stroke-width:1.8165;stroke-miterlimit:10;}
	.st40{fill:#FAAD96;stroke:#FAAD96;stroke-width:5.3093;stroke-miterlimit:10;}
	.st41{fill:#408BFC;}
	.st42{fill:#A4A4A4;}
	.st43{stroke:#000000;stroke-width:2;stroke-miterlimit:10;}
	.st44{fill:#97C1FF;}
	.st45{stroke:#000000;stroke-width:0.25;stroke-miterlimit:10;}
	.st46{fill:none;stroke:#000000;stroke-width:0.25;stroke-miterlimit:10;}
	.st47{fill:#0062FF;stroke:#FFFFFF;stroke-miterlimit:10;}
	.st48{fill:#0062FF;}
	.st49{stroke:#000000;stroke-width:0.35;stroke-miterlimit:10;}
	.st50{fill:none;stroke:#000000;stroke-width:0.35;stroke-miterlimit:10;}
	.st51{fill:#0062FF;stroke:#FFFFFF;stroke-width:1.4001;stroke-miterlimit:10;}
	.st52{stroke:#000000;stroke-width:0.4118;stroke-miterlimit:10;}
	.st53{fill:none;stroke:#000000;stroke-width:3;stroke-miterlimit:10;}
	.st54{stroke:#000000;stroke-width:1.45;stroke-miterlimit:10;}
	.st55{fill:none;stroke:#000000;stroke-width:2.4734;stroke-miterlimit:10;}
	.st56{stroke:#000000;stroke-width:1.1955;stroke-miterlimit:10;}
	.st57{fill:none;stroke:#000000;stroke-width:1.45;stroke-miterlimit:10;}
	.st58{fill:none;stroke:#000000;stroke-width:1.5;stroke-miterlimit:10;}
	.st59{font-size:12px;}
</style>
<path class="st0" d="M1048,1385.7H41.9c-8.8,0-16-11.7-16-26V120c0-14.3,7.2-26,16-26H1048c8.8,0,16,11.7,16,26v1239.9
	C1064.1,1374.1,1056.8,1385.7,1048,1385.7z"/>
<text transform="matrix(1 0 0 1 430.6474 176.7729)" class="st1 st2">External Traffic </text>
<g>
	<path class="st3" d="M511.7,941.2H71.5c-8.2,0-14.9-7.7-14.9-17.1V243.9c0-9.4,6.7-17.1,14.9-17.1h440.1c8.2,0,14.9,7.7,14.9,17.1
		V924C526.5,933.5,519.8,941.2,511.7,941.2z"/>
	<path class="st4" d="M511.7,941.2H71.5c-8.2,0-14.9-7.7-14.9-17.1V243.9c0-9.4,6.7-17.1,14.9-17.1h440.1c8.2,0,14.9,7.7,14.9,17.1
		V924C526.5,933.5,519.8,941.2,511.7,941.2z"/>
</g>
<path class="st5" d="M432.9,589.2H117.2c-4.5,0-8.1-5.5-8.1-12.3V331.4c0-6.8,3.6-12.3,8.1-12.3h315.7c4.5,0,8.1,5.5,8.1,12.3V577
	C441,583.7,437.4,589.2,432.9,589.2z"/>
<text transform="matrix(1 0 0 1 64.6483 310.1311)" class="st6 st7">apphr namespace</text>
<g>
	<ellipse class="st8" cx="273.6" cy="442" rx="47.5" ry="47.5"/>
	<path class="st9" d="M285.8,407.5h-24.4c-1.1,0-2,1-2,2.2v17.5c0,1.2,0.9,2.2,2,2.2h8.1v4.4h-4.1v2.2h16.3v-2.2h-4.1v-4.4h8.1
		c1.1,0,2-1,2-2.2v-17.5C287.8,408.5,286.9,407.5,285.8,407.5z M275.6,433.9h-4.1v-4.4h4.1V433.9z M285.8,427.4h-24.4v-17.6h24.4
		V427.4z"/>
	<path class="st9" d="M303.1,442h-24.4c-1.1,0-2,1.1-2,2.4v19c0,1.3,0.9,2.4,2,2.4h8.1v4.8h-4.1v2.4H299v-2.4h-4.1v-4.9h8.1
		c1.1,0,2-1.1,2-2.4v-19C305.1,443,304.2,442,303.1,442z M292.9,470.5h-4.1v-4.8h4.1V470.5z M303.1,463.4h-24.4v-19h24.4V463.4z"/>
	<path class="st9" d="M266.9,444h-24.4c-1.1,0-2,1-2,2.2v17.5c0,1.2,0.9,2.2,2,2.2h8.1v4.4h-4.1v2.2h16.3v-2.2h-4.1v-4.4h8.1
		c1.1,0,2-1,2-2.2v-17.5C268.9,444.9,268,444,266.9,444z M256.7,470.2h-4.1v-4.4h4.1V470.2z M266.9,463.7h-24.4v-17.5h24.4V463.7z"
		/>
</g>
<ellipse class="st10" cx="304.7" cy="847.4" rx="47.5" ry="47.5"/>
<path class="st9" d="M316.9,813h-24.4c-1.1,0-2,1-2,2.2v17.5c0,1.2,0.9,2.2,2,2.2h8.1v4.4h-4.1v2.2h16.3v-2.2h-4.1v-4.4h8.1
	c1.1,0,2-1,2-2.2v-17.5C318.9,813.9,318,813,316.9,813z M306.7,839.2h-4.1v-4.4h4.1V839.2z M316.9,832.7h-24.4v-17.5h24.4V832.7z"/>
<path class="st9" d="M334.2,847.4h-24.4c-1.1,0-2,1.1-2,2.4v19c0,1.3,0.9,2.4,2,2.4h8.1v4.8h-4.1v2.4h16.3V876H326v-4.8h8.1
	c1.1,0,2-1.1,2-2.4v-19C336.2,848.5,335.3,847.4,334.2,847.4z M324,875.9h-4.1v-4.8h4.1V875.9z M334.2,868.8h-24.4v-19h24.4V868.8z"
	/>
<path class="st9" d="M298,849.2h-24.4c-1.1,0-2,1-2,2.2V869c0,1.2,0.9,2.2,2,2.2h8.1v4.4h-4.1v2.2h16.3v-2.2h-4.1v-4.4h8.1
	c1.1,0,2-1,2-2.2v-17.5C300,850.2,299.1,849.2,298,849.2z M287.8,875.5h-4.1v-4.4h4.1V875.5z M298,869h-24.4v-17.5H298V869z"/>
<text transform="matrix(1 0 0 1 150.7035 520.5961)" class="st6 st11">hostgroup-proxyapphr</text>
<line class="st12" x1="273.6" y1="364.4" x2="273.6" y2="192.1"/>
<polygon class="st13" points="281.7,368 274.9,376.6 274.9,351.7 273.2,351.7 273.2,376.6 266.4,368 265,369.6 274,380.8 
	282.9,369.6 "/>
<rect x="70.7" y="134.2" class="st14" width="939" height="58.7"/>
<polygon class="st13" points="282.6,549.2 275.8,557.8 275.8,532.9 274.1,532.9 274.1,557.8 267.3,549.2 265.9,550.8 274.9,562 
	283.8,550.8 "/>
<text transform="matrix(1 0 0 1 285.7497 260.6333)" class="st15 st16">Ingress resource:</text>
<text transform="matrix(1 0 0 1 285.7495 283.3809)" class="st1 st17">watch-namespace: apphr</text>
<text transform="matrix(1 0 0 1 278.6498 299.3667)" class="st1 st18">tolerations: hostgroup-proxyapphr</text>
<g>
	<text transform="matrix(1 0 0 1 224.7502 628.3328)" class="st6 st19">VLAN 10</text>
	<rect x="201" y="603.2" class="st20" width="162.4" height="34.3"/>
</g>
<text transform="matrix(1 0 0 1 243.7501 755.5893)" class="st6 st19">VLAN 20</text>
<g>
	<path class="st3" d="M1002.7,944.2H562.6c-8.2,0-14.9-7.7-14.9-17.1V247c0-9.4,6.7-17.1,14.9-17.1h440.1c8.2,0,14.9,7.7,14.9,17.1
		v680.2C1017.6,936.6,1010.8,944.2,1002.7,944.2z"/>
	<path class="st4" d="M1002.7,944.2H562.6c-8.2,0-14.9-7.7-14.9-17.1V247c0-9.4,6.7-17.1,14.9-17.1h440.1c8.2,0,14.9,7.7,14.9,17.1
		v680.2C1017.6,936.6,1010.8,944.2,1002.7,944.2z"/>
</g>
<path class="st5" d="M914.4,591.1H598.7c-4.5,0-8.1-5.5-8.1-12.3V333.3c0-6.8,3.6-12.3,8.1-12.3h315.7c4.5,0,8.1,5.5,8.1,12.3v245.6
	C922.6,585.6,918.9,591.1,914.4,591.1z"/>
<text transform="matrix(1 0 0 1 564.1255 310.1309)" class="st6 st21">appsales namespace</text>
<g>
	<ellipse class="st8" cx="743.3" cy="443.1" rx="47.5" ry="47.5"/>
	<path class="st9" d="M755.5,408.6h-24.4c-1.1,0-2,1-2,2.2v17.5c0,1.2,0.9,2.2,2,2.2h8.1v4.4h-4.1v2.2h16.3v-2.2h-4.1v-4.4h8.1
		c1.1,0,2-1,2-2.2v-17.5C757.5,409.6,756.6,408.6,755.5,408.6z M745.3,434.9h-4.1v-4.4h4.1V434.9z M755.5,428.4h-24.4v-17.6h24.4
		V428.4z"/>
	<path class="st9" d="M772.8,443.1h-24.4c-1.1,0-2,1.1-2,2.4v19c0,1.3,0.9,2.4,2,2.4h8.1v4.8h-4.1v2.4h16.3v-2.4h-4.1v-4.9h8.1
		c1.1,0,2-1.1,2-2.4v-19C774.8,444.1,773.9,443.1,772.8,443.1z M762.6,471.6h-4.1v-4.8h4.1V471.6z M772.8,464.4h-24.4v-19h24.4
		V464.4z"/>
	<path class="st9" d="M736.6,445h-24.4c-1.1,0-2,1-2,2.2v17.5c0,1.2,0.9,2.2,2,2.2h8.1v4.4h-4.1v2.2h16.3v-2.2h-4.1v-4.4h8.1
		c1.1,0,2-1,2-2.2v-17.5C738.6,445.9,737.7,445,736.6,445z M726.4,471.3h-4.1v-4.4h4.1V471.3z M736.6,464.7h-24.4v-17.5h24.4V464.7z
		"/>
</g>
<g>
	<ellipse class="st10" cx="836.1" cy="863.5" rx="47.5" ry="47.5"/>
	<path class="st9" d="M848.3,829.1h-24.4c-1.1,0-2,1-2,2.2v17.5c0,1.2,0.9,2.2,2,2.2h8.1v4.4h-4.1v2.2h16.3v-2.2h-4.1V851h8.1
		c1.1,0,2-1,2-2.2v-17.5C850.3,830,849.4,829.1,848.3,829.1z M838.1,855.4H834V851h4.1V855.4z M848.3,848.8h-24.4v-17.5h24.4V848.8z
		"/>
	<path class="st9" d="M865.6,863.5h-24.4c-1.1,0-2,1.1-2,2.4v19c0,1.3,0.9,2.4,2,2.4h8.1v4.8h-4.1v2.4h16.3v-2.4h-4.1v-4.8h8.1
		c1.1,0,2-1.1,2-2.4v-19C867.6,864.6,866.7,863.5,865.6,863.5z M855.4,892h-4.1v-4.8h4.1V892z M865.6,884.9h-24.4v-19h24.4V884.9z"
		/>
	<path class="st9" d="M829.4,865.4H805c-1.1,0-2,1-2,2.2v17.5c0,1.2,0.9,2.2,2,2.2h8.1v4.4H809v2.2h16.3v-2.2h-4.1v-4.4h8.1
		c1.1,0,2-1,2-2.2v-17.5C831.4,866.4,830.5,865.4,829.4,865.4z M819.2,891.7h-4.1v-4.4h4.1V891.7z M829.4,885.1H805v-17.5h24.4
		V885.1z"/>
</g>
<text transform="matrix(1 0 0 1 636.1446 529.703)" class="st6 st22">hostgroup-proxyappsales</text>
<line class="st12" x1="744.6" y1="366.2" x2="744.6" y2="193.9"/>
<polygon class="st13" points="751.4,369.3 744.6,377.9 744.6,353 742.9,353 742.9,377.9 736.1,369.3 734.7,370.9 743.7,382.1 
	752.6,370.9 "/>
<polygon class="st13" points="750.2,565.2 743.5,573.9 743.5,549 741.8,549 741.8,573.9 735,565.2 733.5,566.9 742.5,578 
	751.5,566.9 "/>
<text transform="matrix(1 6.275331e-03 -6.275331e-03 1 761.2226 256.9282)" class="st15 st21">Ingress resource:</text>
<text transform="matrix(1 6.275331e-03 -6.275331e-03 1 752.6 283.3801)" class="st6 st21">watch-namespace: apphr</text>
<text transform="matrix(1 6.275331e-03 -6.275331e-03 1 748.0947 299.366)" class="st6 st23">tolerations: hostgroup-proxyappsales</text>
<g>
	<text transform="matrix(1 0 0 1 679.5119 631.5328)" class="st6 st19">VLAN 30</text>
	<rect x="655.8" y="606.5" class="st20" width="162.4" height="34.3"/>
</g>
<g>
	<text transform="matrix(1 0 0 1 721.8638 761.6018)" class="st6 st19">VLAN 40</text>
	<rect x="698.5" y="731.1" class="st20" width="162.4" height="34.3"/>
</g>
<rect x="222" y="728.5" class="st20" width="162.4" height="34.3"/>
<g>
	<path class="st24" d="M335.9,640.8c0,11.6,4.4,21.1,9.7,21.1"/>
	<line class="st25" x1="345.5" y1="661.8" x2="471.2" y2="661.8"/>
	<path class="st25" d="M504.3,668.3c0-3.5-14.8-6.4-33.1-6.4"/>
	<polygon class="st26" points="511.2,674.1 505.1,677.6 505.1,667.4 503.6,667.4 503.6,677.6 497.6,674.1 496.4,674.8 504.3,679.3 
		512.3,674.8 	"/>
</g>
<path class="st27" d="M524.8,686.9c0,0-0.3,0-0.6,0"/>
<path class="st28" d="M526.5,686.9c0-0.4-0.4-0.8-1-0.8"/>
<polygon class="st29" points="295.4,783.5 302.2,777.9 302.2,794 303.9,794 303.9,777.9 310.7,783.5 312.1,782.4 303.1,775 
	294.2,782.4 "/>
<g>
	<path class="st30" d="M743.4,642.9c0,12.8-4,23.2-8.9,23.2"/>
	<line class="st31" x1="734.5" y1="666.1" x2="619.4" y2="666.1"/>
	<polygon class="st26" points="623.6,674.8 618,678.7 618,667.4 616.7,667.4 616.7,678.7 611.1,674.8 610,675.5 617.3,680.5 
		624.6,675.5 	"/>
</g>
<path class="st32" d="M617.7,667.6c0-0.8,0.8-1.5,1.8-1.5"/>
<g>
	<rect x="114.6" y="594.8" class="st33" width="25.5" height="278.6"/>
	<polygon class="st33" points="128.1,901.7 109.6,873.4 146.6,873.4 	"/>
</g>
<g>
	<rect x="896.6" y="596.6" class="st33" width="25.5" height="278.6"/>
	<polygon class="st33" points="909.4,903.4 890.9,875.1 927.9,875.1 	"/>
</g>
<polygon class="st29" points="826.3,801.4 833.1,795.7 833.1,812 834.8,812 834.8,795.7 841.6,801.4 843,800.3 834,793 825.1,800.3 
	"/>
<text transform="matrix(1 0 0 1 64.6482 926.3431)" class="st6 st34">L7 ingress traffic control</text>
<text transform="matrix(1 0 0 1 777.6496 933.167)" class="st6 st35">L7 ingress traffic control</text>
<g>
	<path class="st36" d="M685.3,725.6H404.5c-5.7,0-10.4-4.7-10.4-10.4v-14.3c0-5.7,4.7-10.4,10.4-10.4h280.8
		c5.7,0,10.4,4.7,10.4,10.4v14.3C695.8,720.9,691.1,725.6,685.3,725.6z"/>
	<text transform="matrix(1 0 0 1 447.9753 715.519)" class="st6 st37">L2/L3 Device</text>
</g>
<text transform="matrix(1 0 0 1 352.1501 867.1876)" class="st6 st35">hostgroup-apphr</text>
<text transform="matrix(1 0 0 1 568.851 870.8248)" class="st6 st35">hostgroup-appsales</text>
<g>
	<path class="st38" d="M277.3,707.3c-1.6-0.2-7.1-0.5-12.3,3.4c-7.2,5.4-7.6,14.4-7.7,15.6"/>
	<line class="st38" x1="277.3" y1="707.3" x2="369.7" y2="707.2"/>
	<polygon class="st26" points="378.8,699.4 384.1,706.2 368.8,706.2 368.8,707.9 384.1,707.9 378.8,714.7 379.8,716.1 386.7,707.1 
		379.8,698.2 	"/>
</g>
<g>
	<path class="st39" d="M779.7,708.2c1.7-0.2,7.6-0.5,13.1,3.4c7.7,5.4,8.1,14.4,8.2,15.6"/>
	<line class="st39" x1="784.3" y1="708.1" x2="715.7" y2="708"/>
	<polygon class="st26" points="706,700.3 700.4,707.1 716.7,707.1 716.7,708.8 700.4,708.8 706,715.6 705,717 697.7,708 705,699.1 	
		"/>
</g>
<path class="st40" d="M512.8,1343.1H76.6c-6.6,0-12-5.4-12-12v-285.2c0-6.6,5.4-12,12-12h436.1c6.6,0,12,5.4,12,12v285.2
	C524.8,1337.7,519.4,1343.1,512.8,1343.1z"/>
<path class="st40" d="M1008.8,1343.1H572.7c-6.6,0-12-5.4-12-12v-285.2c0-6.6,5.4-12,12-12h436.1c6.6,0,12,5.4,12,12v285.2
	C1020.8,1337.7,1015.4,1343.1,1008.8,1343.1z"/>
<text transform="matrix(1 0 0 1 98.1237 1104.3596)" class="st15 st7">PVC-hrwebpod</text>
<text transform="matrix(1 0 0 1 314.95 1104.3596)" class="st15 st7">PVC-hrserverpod</text>
<text transform="matrix(1 0 0 1 98.1239 1245.4758)" class="st15 st7">PV-hrwebpod</text>
<text transform="matrix(1 0 0 1 336.9499 1244.476)" class="st15 st7">PV-hrserver</text>
<text transform="matrix(1 0 0 1 109.0191 1132.7883)" class="st6 st35">selector: apphr</text>
<text transform="matrix(1 0 0 1 577.1465 1104.3597)" class="st15 st7">PVC-saleswebpod</text>
<text transform="matrix(1 0 0 1 801.002 1104.36)" class="st15 st7">PVC-saleswebpod</text>
<text transform="matrix(1 0 0 1 574.6162 1245.4763)" class="st15 st7">PVC-saleswebpod</text>
<text transform="matrix(1 0 0 1 804.002 1246.4763)" class="st15 st7">PVC-saleswebpod</text>
<text transform="matrix(1 0 0 1 331.4001 1132.4915)" class="st6 st35">selector: apphr</text>
<text transform="matrix(1 0 0 1 590.5726 1132.4989)" class="st6 st35">selector: apphr</text>
<text transform="matrix(1 0 0 1 821.9019 1134.4993)" class="st6 st35">selector: apphr</text>
<text transform="matrix(1 0 0 1 109.0189 1277.2056)" class="st6 st35">label: apphr</text>
<text transform="matrix(1 0 0 1 345.5314 1274.6377)" class="st6 st35">label: apphr</text>
<text transform="matrix(1 0 0 1 609.9987 1275.2059)" class="st6 st35">label: appsales</text>
<text transform="matrix(1 0 0 1 841.2017 1274.6381)" class="st6 st35">label: appsales</text>
<g>
	<rect x="98.1" y="1152.8" class="st41" width="175.4" height="35.7"/>
	<rect x="107.7" y="1158.8" class="st9" width="156.3" height="23.7"/>
	<rect x="119.6" y="1161.7" class="st42" width="18" height="18"/>
	<rect x="148.3" y="1161.8" class="st42" width="18" height="18"/>
	<rect x="176.8" y="1161.8" class="st42" width="18" height="18"/>
	<rect x="206.8" y="1161.8" class="st42" width="18" height="18"/>
	<rect x="234.8" y="1161.8" class="st42" width="18" height="18"/>
</g>
<g>
	<rect x="316.9" y="1152.8" class="st41" width="175.4" height="35.7"/>
	<rect x="326.4" y="1158.8" class="st9" width="156.3" height="23.7"/>
	<rect x="338.3" y="1161.7" class="st42" width="18" height="18"/>
	<rect x="367" y="1161.8" class="st42" width="18" height="18"/>
	<rect x="395.6" y="1161.8" class="st42" width="18" height="18"/>
	<rect x="425.5" y="1161.8" class="st42" width="18" height="18"/>
	<rect x="453.5" y="1161.8" class="st42" width="18" height="18"/>
</g>
<g>
	<rect x="574.6" y="1153.7" class="st41" width="175.4" height="35.7"/>
	<rect x="584.2" y="1159.7" class="st9" width="156.3" height="23.7"/>
	<rect x="596.1" y="1162.5" class="st42" width="18" height="18"/>
	<rect x="624.8" y="1162.7" class="st42" width="18" height="18"/>
	<rect x="653.3" y="1162.7" class="st42" width="18" height="18"/>
	<rect x="683.2" y="1162.7" class="st42" width="18" height="18"/>
	<rect x="711.2" y="1162.7" class="st42" width="18" height="18"/>
</g>
<g>
	<rect x="819.5" y="1151.8" class="st41" width="175.4" height="35.7"/>
	<rect x="829" y="1157.8" class="st9" width="156.3" height="23.7"/>
	<rect x="840.9" y="1160.7" class="st42" width="18" height="18"/>
	<rect x="869.6" y="1160.8" class="st42" width="18" height="18"/>
	<rect x="898.2" y="1160.8" class="st42" width="18" height="18"/>
	<rect x="928.1" y="1160.8" class="st42" width="18" height="18"/>
	<rect x="956.1" y="1160.8" class="st42" width="18" height="18"/>
</g>
<line class="st43" x1="86.1" y1="1109.6" x2="282.5" y2="1111.2"/>
<line class="st43" x1="315" y1="1111.2" x2="518.3" y2="1111.2"/>
<line class="st20" x1="572.9" y1="1111.2" x2="791.7" y2="1111.2"/>
<line class="st43" x1="804" y1="1111.2" x2="1015.2" y2="1111.2"/>
<line class="st43" x1="804" y1="1250.5" x2="1015.2" y2="1250.5"/>
<line class="st43" x1="573.9" y1="1250.5" x2="785.1" y2="1250.5"/>
<line class="st43" x1="77.5" y1="1253.7" x2="288.7" y2="1253.7"/>
<line class="st43" x1="311" y1="1253.7" x2="522.2" y2="1253.7"/>
<g>
	<g>
		<ellipse class="st44" cx="164.6" cy="1301.3" rx="38.4" ry="10.1"/>
		<line class="st45" x1="126.2" y1="1301.3" x2="126.2" y2="1328.2"/>
		<line class="st45" x1="202.9" y1="1301.8" x2="202.9" y2="1328.7"/>
		<path class="st46" d="M202.9,1328.7c-8.1,3.1-21.7,7.2-38.9,7c-16.7-0.2-29.8-4.3-37.8-7.4"/>
	</g>
	<path class="st47" d="M145.7,1310.8c2.8,0.3,5.7,0.6,8.7,0.8c4,0.2,7.7,0.3,11.3,0.3c0,7.6-0.1,15.3-0.1,22.9
		c-0.3,0-0.8,0.1-1.3,0.1c-0.5,0-1.1,0.1-2.4,0c-1,0-1.8-0.1-2.3-0.1c-1.5-0.1-3-0.2-3.9-0.2c-3.7-0.3-9.3-1.3-10-1.4
		C145.7,1325.8,145.7,1318.3,145.7,1310.8z"/>
	<path class="st47" d="M166.1,1312c3,0.1,6.4,0,10-0.4c3.7-0.3,7.1-0.9,10.2-1.5c0.3,7.2,0.5,14.4,0.8,21.6c0,0.1,0,0.3-0.1,0.5
		c0,0.1-0.1,0.2-0.1,0.3c-0.4,0.1-1.1,0.3-1.9,0.4c-0.6,0.1-1,0.2-1.1,0.2c-1.7,0.2-6.9,1.2-7.7,1.3c-2.1,0.4-5.2,0.7-10,0.4
		C166.2,1327.2,166.2,1319.6,166.1,1312z"/>
	<path class="st47" d="M126.9,1304.1c1.8,1.3,4.1,2.7,7,3.9c4.4,1.8,8.4,2.3,11.1,2.5c0.1,7.4,0.1,14.9,0.2,22.3
		c-2.7-0.4-5.9-1.1-9.3-2.2c-3.4-1.1-6.4-2.3-9-3.5C127,1319.5,126.9,1311.8,126.9,1304.1z"/>
	<path class="st47" d="M186.8,1310.1c0.9-0.1,2.2-0.2,3.7-0.6c0.3-0.1,1-0.2,2.7-0.8c3-1,4.6-1.5,6.2-2.4c0.6-0.4,1.5-0.9,2.6-1.8
		c0.1,7.8,0.1,15.6,0.2,23.3c-1.8,0.8-3.8,1.7-6.1,2.4c-3.1,1-6,1.6-8.4,1.9C187.4,1324.8,187.1,1317.4,186.8,1310.1z"/>
</g>
<path class="st48" d="M192.1,1362.2"/>
<g>
	<g>
		<ellipse class="st44" cx="404.6" cy="1298" rx="38.4" ry="10.1"/>
		<line class="st45" x1="366.2" y1="1298" x2="366.2" y2="1324.9"/>
		<line class="st45" x1="443" y1="1298.4" x2="443" y2="1325.3"/>
		<path class="st46" d="M443,1325.3c-8.1,3.1-21.7,7.2-38.9,7c-16.7-0.2-29.8-4.3-37.8-7.4"/>
	</g>
	<path class="st47" d="M385.7,1307.5c2.8,0.3,5.7,0.6,8.7,0.8c4,0.2,7.7,0.3,11.3,0.3c0,7.6-0.1,15.3-0.1,22.9
		c-0.3,0-0.8,0.1-1.3,0.1c-0.5,0-1.1,0.1-2.4,0c-1,0-1.8-0.1-2.3-0.1c-1.5-0.1-3-0.2-3.9-0.2c-3.7-0.3-9.3-1.3-10-1.4
		C385.7,1322.4,385.7,1315,385.7,1307.5z"/>
	<path class="st47" d="M406.1,1308.7c3,0.1,6.4,0,10-0.4c3.7-0.3,7.1-0.9,10.2-1.5c0.3,7.2,0.5,14.4,0.8,21.6c0,0.1,0,0.3-0.1,0.5
		c0,0.1-0.1,0.2-0.1,0.3c-0.4,0.1-1.1,0.3-1.9,0.4c-0.6,0.1-1,0.2-1.1,0.2c-1.7,0.2-6.9,1.2-7.7,1.3c-2.1,0.4-5.2,0.7-10,0.4
		C406.2,1323.9,406.2,1316.3,406.1,1308.7z"/>
	<path class="st47" d="M366.9,1300.8c1.8,1.3,4.1,2.7,7,3.9c4.4,1.8,8.4,2.3,11.1,2.5c0.1,7.4,0.1,14.9,0.2,22.3
		c-2.7-0.4-5.9-1.1-9.3-2.2c-3.4-1.1-6.4-2.3-9-3.5C367,1316.2,367,1308.5,366.9,1300.8z"/>
	<path class="st47" d="M426.8,1306.8c0.9-0.1,2.2-0.2,3.7-0.6c0.3-0.1,1-0.2,2.7-0.8c3-1,4.6-1.5,6.2-2.4c0.6-0.4,1.5-0.9,2.6-1.8
		c0.1,7.8,0.1,15.6,0.2,23.3c-1.8,0.8-3.8,1.7-6.1,2.4c-3.1,1-6,1.6-8.4,1.9C427.4,1321.5,427.1,1314.1,426.8,1306.8z"/>
</g>
<g>
	<g>
		<ellipse class="st44" cx="662.3" cy="1294.7" rx="38.4" ry="10.1"/>
		<line class="st45" x1="624" y1="1294.7" x2="624" y2="1321.6"/>
		<line class="st45" x1="700.7" y1="1295.1" x2="700.7" y2="1322"/>
		<path class="st46" d="M700.7,1322c-8.1,3.1-21.7,7.2-38.9,7c-16.7-0.2-29.8-4.3-37.8-7.4"/>
	</g>
	<path class="st47" d="M643.4,1304.2c2.8,0.3,5.7,0.6,8.7,0.8c4,0.2,7.7,0.3,11.3,0.3c0,7.6-0.1,15.3-0.1,22.9
		c-0.3,0-0.8,0.1-1.3,0.1c-0.5,0-1.1,0.1-2.4,0c-1,0-1.8-0.1-2.3-0.1c-1.5-0.1-3-0.2-3.9-0.2c-3.7-0.3-9.3-1.3-10-1.4
		C643.4,1319.1,643.4,1311.7,643.4,1304.2z"/>
	<path class="st47" d="M663.9,1305.4c3,0.1,6.4,0,10-0.4c3.7-0.3,7.1-0.9,10.2-1.5c0.3,7.2,0.5,14.4,0.8,21.6c0,0.1,0,0.3-0.1,0.5
		c0,0.1-0.1,0.2-0.1,0.3c-0.4,0.1-1.1,0.3-1.9,0.4c-0.6,0.1-1,0.2-1.1,0.2c-1.7,0.2-6.9,1.2-7.7,1.3c-2.1,0.4-5.2,0.7-10,0.4
		C664,1320.6,663.9,1313,663.9,1305.4z"/>
	<path class="st47" d="M624.7,1297.5c1.8,1.3,4.1,2.7,7,3.9c4.4,1.8,8.4,2.3,11.1,2.5c0.1,7.4,0.1,14.9,0.2,22.3
		c-2.7-0.4-5.9-1.1-9.3-2.2c-3.4-1.1-6.4-2.3-9-3.5C624.7,1312.9,624.7,1305.2,624.7,1297.5z"/>
	<path class="st47" d="M684.6,1303.5c0.9-0.1,2.2-0.2,3.7-0.6c0.3-0.1,1-0.2,2.7-0.8c3-1,4.6-1.5,6.2-2.4c0.6-0.4,1.5-0.9,2.6-1.8
		c0.1,7.8,0.1,15.6,0.2,23.3c-1.8,0.8-3.8,1.7-6.1,2.4c-3.1,1-6,1.6-8.4,1.9C685.1,1318.2,684.8,1310.8,684.6,1303.5z"/>
</g>
<g>
	<g>
		<ellipse class="st44" cx="907.2" cy="1296.7" rx="38.4" ry="10.1"/>
		<line class="st45" x1="868.8" y1="1296.7" x2="868.8" y2="1323.6"/>
		<line class="st45" x1="945.5" y1="1297.1" x2="945.5" y2="1324"/>
		<path class="st46" d="M945.5,1324c-8.1,3.1-21.7,7.2-38.9,7c-16.7-0.2-29.8-4.3-37.8-7.4"/>
	</g>
	<path class="st47" d="M888.3,1306.2c2.8,0.3,5.7,0.6,8.7,0.8c4,0.2,7.7,0.3,11.3,0.3c0,7.6-0.1,15.3-0.1,22.9
		c-0.3,0-0.8,0.1-1.3,0.1c-0.5,0-1.1,0.1-2.4,0c-1,0-1.8-0.1-2.3-0.1c-1.5-0.1-3-0.2-3.9-0.2c-3.7-0.3-9.3-1.3-10-1.4
		C888.3,1321.1,888.3,1313.7,888.3,1306.2z"/>
	<path class="st47" d="M908.7,1307.4c3,0.1,6.4,0,10-0.4c3.7-0.3,7.1-0.9,10.2-1.5c0.3,7.2,0.5,14.4,0.8,21.6c0,0.1,0,0.3-0.1,0.5
		c0,0.1-0.1,0.2-0.1,0.3c-0.4,0.1-1.1,0.3-1.9,0.4c-0.6,0.1-1,0.2-1.1,0.2c-1.7,0.2-6.9,1.2-7.7,1.3c-2.1,0.4-5.2,0.7-10,0.4
		C908.8,1322.6,908.8,1315,908.7,1307.4z"/>
	<path class="st47" d="M869.5,1299.5c1.8,1.3,4.1,2.7,7,3.9c4.4,1.8,8.4,2.3,11.1,2.5c0.1,7.4,0.1,14.9,0.2,22.3
		c-2.7-0.4-5.9-1.1-9.3-2.2c-3.4-1.1-6.4-2.3-9-3.5C869.6,1314.9,869.5,1307.2,869.5,1299.5z"/>
	<path class="st47" d="M929.4,1305.5c0.9-0.1,2.2-0.2,3.7-0.6c0.3-0.1,1-0.2,2.7-0.8c3-1,4.6-1.5,6.2-2.4c0.6-0.4,1.5-0.9,2.6-1.8
		c0.1,7.8,0.1,15.6,0.2,23.3c-1.8,0.8-3.8,1.7-6.1,2.4c-3.1,1-6,1.6-8.4,1.9C930,1320.2,929.7,1312.8,929.4,1305.5z"/>
</g>
<g>
	<ellipse class="st44" cx="517.2" cy="1478.3" rx="55" ry="13.8"/>
	<g>
		<line class="st49" x1="462.2" y1="1478.3" x2="462.2" y2="1515.1"/>
		<line class="st49" x1="572.2" y1="1478.9" x2="572.2" y2="1515.7"/>
		<path class="st50" d="M572.2,1515.7c-11.7,4.3-31.2,9.8-55.8,9.6c-23.9-0.2-42.7-5.8-54.2-10.2"/>
		<path class="st51" d="M490.2,1491.3c4,0.5,8.2,0.8,12.5,1.1c5.7,0.3,11.1,0.5,16.1,0.4c0,10.4-0.1,20.9-0.1,31.3
			c-0.5,0.1-1.1,0.1-1.9,0.2c-0.7,0-1.6,0.1-3.5,0c-1.4,0-2.5-0.1-3.3-0.1c-2.2-0.1-4.3-0.2-5.7-0.3c-5.4-0.4-13.3-1.7-14.3-1.9
			C490.2,1511.7,490.2,1501.5,490.2,1491.3z"/>
		<path class="st51" d="M519.4,1492.9c4.3,0.1,9.2,0,14.4-0.5c5.4-0.5,10.2-1.2,14.6-2.1c0.4,9.8,0.8,19.7,1.2,29.5
			c0,0.1,0,0.4-0.1,0.7c-0.1,0.2-0.1,0.3-0.2,0.4c-0.6,0.2-1.5,0.4-2.7,0.6c-0.8,0.1-1.4,0.2-1.5,0.2c-2.5,0.3-9.9,1.6-11,1.8
			c-3,0.5-7.5,0.9-14.3,0.6C519.6,1513.7,519.5,1503.3,519.4,1492.9z"/>
		<path class="st51" d="M463.3,1482.2c2.5,1.8,5.9,3.7,10.1,5.4c6.3,2.5,12,3.2,16,3.4c0.1,10.2,0.2,20.3,0.2,30.5
			c-3.9-0.6-8.4-1.5-13.3-3c-4.9-1.5-9.2-3.2-12.9-4.8C463.4,1503.2,463.3,1492.7,463.3,1482.2z"/>
		<path class="st51" d="M549.1,1490.3c1.3-0.1,3.2-0.3,5.4-0.8c0.4-0.1,1.4-0.3,3.9-1.1c4.4-1.4,6.5-2.1,8.8-3.3
			c0.9-0.5,2.2-1.3,3.7-2.4c0.1,10.6,0.2,21.3,0.2,31.9c-2.5,1.1-5.4,2.3-8.8,3.3c-4.5,1.4-8.6,2.1-12.1,2.6
			C549.9,1510.4,549.5,1500.4,549.1,1490.3z"/>
	</g>
	<g>
		<line class="st49" x1="462.2" y1="1514.1" x2="462.2" y2="1550.8"/>
		<line class="st49" x1="572.2" y1="1514.7" x2="572.2" y2="1551.5"/>
		<path class="st50" d="M572.2,1551.5c-11.7,4.3-31.2,9.8-55.8,9.6c-23.9-0.2-42.7-5.8-54.2-10.2"/>
		<path class="st51" d="M490.2,1527.1c4,0.5,8.2,0.8,12.5,1.1c5.7,0.3,11.1,0.5,16.1,0.4c0,10.4-0.1,20.9-0.1,31.3
			c-0.5,0.1-1.1,0.1-1.9,0.2c-0.7,0-1.6,0.1-3.5,0c-1.4,0-2.5-0.1-3.3-0.1c-2.2-0.1-4.3-0.2-5.7-0.3c-5.4-0.4-13.3-1.7-14.3-1.9
			C490.2,1547.5,490.2,1537.3,490.2,1527.1z"/>
		<path class="st51" d="M519.4,1528.7c4.3,0.1,9.2,0,14.4-0.5c5.4-0.5,10.2-1.2,14.6-2.1c0.4,9.8,0.8,19.7,1.2,29.5
			c0,0.1,0,0.4-0.1,0.7c-0.1,0.2-0.1,0.3-0.2,0.4c-0.6,0.2-1.5,0.4-2.7,0.6c-0.8,0.1-1.4,0.2-1.5,0.2c-2.5,0.3-9.9,1.6-11,1.8
			c-3,0.5-7.5,0.9-14.3,0.6C519.6,1549.4,519.5,1539.1,519.4,1528.7z"/>
		<path class="st51" d="M463.3,1517.9c2.5,1.7,5.9,3.7,10.1,5.4c6.3,2.5,12,3.2,16,3.4c0.1,10.2,0.2,20.3,0.2,30.5
			c-3.9-0.6-8.4-1.5-13.3-3c-4.9-1.5-9.2-3.2-12.9-4.8C463.4,1538.9,463.3,1528.4,463.3,1517.9z"/>
		<path class="st51" d="M549.1,1526.1c1.3-0.1,3.2-0.3,5.4-0.8c0.4-0.1,1.4-0.3,3.9-1.1c4.4-1.4,6.5-2.1,8.8-3.3
			c0.9-0.5,2.2-1.3,3.7-2.4c0.1,10.6,0.2,21.3,0.2,31.9c-2.5,1.1-5.4,2.3-8.8,3.3c-4.5,1.4-8.6,2.1-12.1,2.6
			C549.9,1546.2,549.5,1536.1,549.1,1526.1z"/>
	</g>
	<g>
		<line class="st49" x1="462.2" y1="1547.5" x2="462.2" y2="1584.3"/>
		<line class="st49" x1="572.2" y1="1548.1" x2="572.2" y2="1584.9"/>
		<path class="st50" d="M572.2,1584.9c-11.7,4.3-31.2,9.8-55.8,9.6c-23.9-0.2-42.7-5.8-54.2-10.2"/>
		<path class="st51" d="M490.2,1560.5c4,0.5,8.2,0.8,12.5,1.1c5.7,0.3,11.1,0.5,16.1,0.4c0,10.4-0.1,20.9-0.1,31.3
			c-0.5,0.1-1.1,0.1-1.9,0.2c-0.7,0-1.6,0.1-3.5,0c-1.4,0-2.5-0.1-3.3-0.1c-2.2-0.1-4.3-0.2-5.7-0.3c-5.4-0.4-13.3-1.7-14.3-1.9
			C490.2,1580.9,490.2,1570.7,490.2,1560.5z"/>
		<path class="st51" d="M519.4,1562.1c4.3,0.1,9.2,0,14.4-0.5c5.4-0.5,10.2-1.2,14.6-2.1c0.4,9.8,0.8,19.7,1.2,29.5
			c0,0.1,0,0.4-0.1,0.7c-0.1,0.2-0.1,0.3-0.2,0.4c-0.6,0.2-1.5,0.4-2.7,0.6c-0.8,0.1-1.4,0.2-1.5,0.2c-2.5,0.3-9.9,1.6-11,1.8
			c-3,0.5-7.5,0.9-14.3,0.6C519.6,1582.9,519.5,1572.5,519.4,1562.1z"/>
		<path class="st51" d="M463.3,1551.4c2.5,1.8,5.9,3.7,10.1,5.4c6.3,2.5,12,3.2,16,3.4c0.1,10.2,0.2,20.3,0.2,30.5
			c-3.9-0.6-8.4-1.5-13.3-3c-4.9-1.5-9.2-3.2-12.9-4.8C463.4,1572.4,463.3,1561.9,463.3,1551.4z"/>
		<path class="st51" d="M549.1,1559.5c1.3-0.1,3.2-0.3,5.4-0.8c0.4-0.1,1.4-0.3,3.9-1.1c4.4-1.4,6.5-2.1,8.8-3.3
			c0.9-0.5,2.2-1.3,3.7-2.4c0.1,10.6,0.2,21.3,0.2,31.9c-2.5,1.1-5.4,2.3-8.8,3.3c-4.5,1.4-8.6,2.1-12.1,2.6
			C549.9,1579.6,549.5,1569.6,549.1,1559.5z"/>
	</g>
</g>
<polygon class="st52" points="179.9,1208.3 173.9,1213.6 173.9,1198.2 172.3,1198.2 172.3,1213.6 166.3,1208.3 165,1209.3 
	173,1216.2 181,1209.3 "/>
<polygon class="st52" points="405,1210.6 399,1215.9 399,1200.5 397.4,1200.5 397.4,1215.9 391.4,1210.6 390.1,1211.6 398.2,1218.5 
	406.1,1211.6 "/>
<polygon class="st52" points="662.8,1210.6 656.7,1215.9 656.7,1200.5 655.2,1200.5 655.2,1215.9 649.1,1210.6 647.9,1211.6 
	655.9,1218.5 663.9,1211.6 "/>
<polygon class="st52" points="907.6,1210.6 901.5,1215.9 901.5,1200.5 900,1200.5 900,1215.9 893.9,1210.6 892.7,1211.6 
	900.7,1218.5 908.7,1211.6 "/>
<line class="st53" x1="165.7" y1="1345.6" x2="164.6" y2="1529.3"/>
<line class="st53" x1="163.1" y1="1528.8" x2="446.1" y2="1530.1"/>
<line class="st53" x1="386.9" y1="1342.9" x2="384.6" y2="1502.5"/>
<line class="st53" x1="385" y1="1503.2" x2="447.1" y2="1503.2"/>
<polygon class="st54" points="451.7,1496.3 457,1502.3 441.6,1502.3 441.6,1503.9 457,1503.9 451.7,1509.9 452.7,1511.2 
	459.6,1503.2 452.7,1495.2 "/>
<polygon class="st54" points="452.6,1523.2 458,1529.3 442.6,1529.3 442.6,1530.8 458,1530.8 452.6,1536.9 453.6,1538.1 
	460.6,1530.1 453.6,1522.1 "/>
<polygon class="st54" points="644.1,1539 638.8,1532.9 654.2,1532.9 654.2,1531.4 638.8,1531.4 644.1,1525.3 643.1,1524.1 
	636.2,1532.1 643.1,1540.1 "/>
<g>
	<line class="st55" x1="670.9" y1="1346" x2="670.2" y2="1500"/>
	<line class="st55" x1="640.3" y1="1499" x2="670.2" y2="1499"/>
	<polygon class="st56" points="638.4,1505.9 634.7,1499.8 645.2,1499.8 645.2,1498.3 634.7,1498.3 638.4,1492.2 637.7,1491 
		633,1499 637.7,1507 	"/>
</g>
<line class="st53" x1="908.6" y1="1345.4" x2="910.8" y2="1535"/>
<line class="st53" x1="649.6" y1="1532.1" x2="910.8" y2="1533.4"/>
<g>
	<path class="st57" d="M522,1442c0-3.3,3.1-6,7-6"/>
	<line class="st57" x1="522" y1="1462.2" x2="522" y2="1442"/>
	<line class="st57" x1="529" y1="1435.9" x2="623.9" y2="1434.9"/>
</g>
<path class="st57" d="M631.2,1440.8c0-3.3-3.3-6-7.3-6"/>
<line class="st57" x1="631.2" y1="1440.8" x2="629.6" y2="1599"/>
<path class="st58" d="M629.6,1599c0,3.4-3.3,6.2-7.4,6.2"/>
<line class="st57" x1="622.2" y1="1605.2" x2="522" y2="1606.3"/>
<path class="st57" d="M518.8,1594.5c0,6.5,2.1,11.8,4.7,11.8"/>
<text transform="matrix(1 0 0 1 577.1469 1454.6456)"><tspan x="0" y="0" class="st6 st59">nfs</tspan><tspan x="0" y="14.4" class="st6 st59">glusterfs</tspan><tspan x="0" y="28.8" class="st6 st59">hostpath</tspan></text>
<text transform="matrix(1 0 0 1 370.1028 1577.0304)" class="st6 st59">Physical storage </text>
</svg>