<?xml version="1.0" encoding="utf-8"?>
<!-- Generator: Adobe Illustrator 17.1.0, SVG Export Plug-In . SVG Version: 6.00 Build 0)  -->
<!DOCTYPE svg PUBLIC "-//W3C//DTD SVG 1.1//EN" "http://www.w3.org/Graphics/SVG/1.1/DTD/svg11.dtd">
<svg version="1.1" id="Layer_1" xmlns="http://www.w3.org/2000/svg" xmlns:xlink="http://www.w3.org/1999/xlink" x="0px" y="0px"
	 viewBox="0 0 1126.4 324.2" enable-background="new 0 0 1126.4 324.2" xml:space="preserve">
<path fill="#FFFFFF" stroke="#000000" stroke-width="4" stroke-miterlimit="10" d="M146.2,183.6c0,6.6-5.4,12-12,12H30.7
	c-6.6,0-12-5.4-12-12V145c0-6.6,5.4-12,12-12h103.5c6.6,0,12,5.4,12,12V183.6z"/>
<path fill="#FFFFFF" stroke="#E2BC23" stroke-miterlimit="10" d="M736.3,58.3c0,6.6-5.4,12-12,12H668c-6.6,0-12-5.4-12-12V34
	c0-6.6,5.4-12,12-12h56.2c6.6,0,12,5.4,12,12V58.3z"/>
<path fill="#FFFFFF" stroke="#4D6BB3" stroke-miterlimit="10" d="M736.3,290.3c0,6.6-5.4,12-12,12H668c-6.6,0-12-5.4-12-12V266
	c0-6.6,5.4-12,12-12h56.2c6.6,0,12,5.4,12,12V290.3z"/>
<path fill="#FFFFFF" stroke="#E2BC23" stroke-miterlimit="10" d="M968.3,58.3c0,6.6-5.4,12-12,12h-56.2c-6.6,0-12-5.4-12-12V34
	c0-6.6,5.4-12,12-12h56.2c6.6,0,12,5.4,12,12V58.3z"/>
<path fill="#FFFFFF" stroke="#4D6BB3" stroke-miterlimit="10" d="M968.3,290.3c0,6.6-5.4,12-12,12h-56.2c-6.6,0-12-5.4-12-12V266
	c0-6.6,5.4-12,12-12h56.2c6.6,0,12,5.4,12,12V290.3z"/>
<circle fill="#F26222" stroke="#000000" stroke-width="4" stroke-miterlimit="10" cx="126.4" cy="164.3" r="12.1"/>
<line fill="none" stroke="#000000" stroke-width="2" stroke-miterlimit="10" x1="146.2" y1="164.3" x2="424.3" y2="164.3"/>
<line fill="none" stroke="#000000" stroke-width="2" stroke-miterlimit="10" x1="214.3" y1="97.8" x2="214.3" y2="231.9"/>
<g>
	<g>
		<line fill="none" stroke="#000000" stroke-miterlimit="10" x1="146.2" y1="164.3" x2="152" y2="162.9"/>
		
			<line fill="none" stroke="#000000" stroke-miterlimit="10" stroke-dasharray="11.8929,11.8929" x1="163.6" y1="160.2" x2="644.4" y2="48.9"/>
		<line fill="none" stroke="#000000" stroke-miterlimit="10" x1="650.2" y1="47.5" x2="656" y2="46.2"/>
	</g>
</g>
<g>
	<g>
		<line fill="none" stroke="#000000" stroke-miterlimit="10" x1="146.2" y1="164.3" x2="152.1" y2="163.5"/>
		
			<line fill="none" stroke="#000000" stroke-miterlimit="10" stroke-dasharray="12.0773,12.0773" x1="164.1" y1="161.9" x2="876.2" y2="65.4"/>
		<line fill="none" stroke="#000000" stroke-miterlimit="10" x1="882.1" y1="64.5" x2="888.1" y2="63.7"/>
	</g>
</g>
<g>
	<g>
		<line fill="none" stroke="#000000" stroke-miterlimit="10" x1="146.2" y1="164.3" x2="152" y2="165.6"/>
		
			<line fill="none" stroke="#000000" stroke-miterlimit="10" stroke-dasharray="11.8709,11.8709" x1="163.6" y1="168.2" x2="644.4" y2="275.6"/>
		<line fill="none" stroke="#000000" stroke-miterlimit="10" x1="650.2" y1="276.8" x2="656" y2="278.2"/>
	</g>
</g>
<g>
	<g>
		<line fill="none" stroke="#000000" stroke-miterlimit="10" x1="146.2" y1="164.3" x2="152.1" y2="165.1"/>
		
			<line fill="none" stroke="#000000" stroke-miterlimit="10" stroke-dasharray="12.0702,12.0702" x1="164.1" y1="166.6" x2="876.2" y2="260"/>
		<line fill="none" stroke="#000000" stroke-miterlimit="10" x1="882.1" y1="260.8" x2="888.1" y2="261.5"/>
	</g>
</g>
<line fill="#006557" stroke="#E2BC23" stroke-width="2" stroke-miterlimit="10" x1="497.8" y1="125.1" x2="968.3" y2="125.1"/>
<line fill="#4D6BB3" stroke="#4D6BB3" stroke-width="2" stroke-miterlimit="10" x1="497.8" y1="200" x2="968.3" y2="200"/>
<line fill="none" stroke="#4D6BB3" stroke-width="2" stroke-miterlimit="10" x1="696.2" y1="200" x2="696.2" y2="254"/>
<line fill="none" stroke="#E2BC23" stroke-width="2" stroke-miterlimit="10" x1="696.2" y1="70.3" x2="696.2" y2="125.1"/>
<line fill="none" stroke="#4D6BB3" stroke-width="2" stroke-miterlimit="10" x1="928.2" y1="200" x2="928.2" y2="254"/>
<line fill="none" stroke="#E2BC23" stroke-width="2" stroke-miterlimit="10" x1="928.2" y1="70.3" x2="928.2" y2="125.1"/>
<text transform="matrix(1 0 0 1 27.4726 169.2308)" font-family="'MyriadPro-Regular'" font-size="14">Master node</text>
<text transform="matrix(1 0 0 1 675.0771 40.8119)"><tspan x="0" y="0" font-family="'IBMPlexSans'" font-size="12">Worker </tspan><tspan x="0" y="14.4" font-family="'IBMPlexSans'" font-size="12">node 11</tspan></text>
<text transform="matrix(1 0 0 1 910.2419 40.8119)"><tspan x="0" y="0" font-family="'IBMPlexSans'" font-size="12">Worker </tspan><tspan x="0" y="14.4" font-family="'IBMPlexSans'" font-size="12">node 12</tspan></text>
<text transform="matrix(1 0 0 1 675.0771 274.8778)"><tspan x="0" y="0" font-family="'IBMPlexSans'" font-size="12">Worker </tspan><tspan x="0" y="14.4" font-family="'IBMPlexSans'" font-size="12">node 21</tspan></text>
<text transform="matrix(1 0 0 1 910.2419 274.8778)"><tspan x="0" y="0" font-family="'IBMPlexSans'" font-size="12">Worker </tspan><tspan x="0" y="14.4" font-family="'IBMPlexSans'" font-size="12">node 22</tspan></text>
<text transform="matrix(1 0 0 1 978.0217 125.1124)" font-family="'IBMPlexSans'" font-size="14">Production segment</text>
<text transform="matrix(1 0 0 1 978.0216 203.2968)" font-family="'IBMPlexSans'" font-size="14">Development segment</text>
<line fill="none" stroke="#000000" stroke-miterlimit="10" x1="126.4" y1="176.4" x2="126.4" y2="221.2"/>
<text transform="matrix(1 0 0 1 67.0331 231.868)" font-family="'IBMPlexSans'" font-size="14">Calico route reflector</text>
<text transform="matrix(1 0 0 1 825.2745 117.3077)" font-family="'IBMPlexSans'" font-size="12">L2</text>
<text transform="matrix(1 0 0 1 825.2745 221.2198)" font-family="'IBMPlexSans'" font-size="12">L2</text>
<text transform="matrix(1 0 0 1 604.396 82.143)" font-family="'IBMPlexSans'" font-size="12">L3</text>
<text transform="matrix(1 0 0 1 604.3961 247.8683)" font-family="'IBMPlexSans'" font-size="12">L3</text>
<text transform="matrix(1 0 0 1 485.5789 150.0004)" font-family="'IBMPlexSans'" font-size="14">Layer 3 device</text>
<text transform="matrix(1 0 0 1 978.0217 168.7425)" font-family="'IBMPlexSans'" font-size="14">Zone firewall</text>
<g>
	<ellipse fill="none" stroke="#000000" stroke-width="2" stroke-miterlimit="10" cx="452.2" cy="164.3" rx="27.9" ry="25.3"/>
	<line fill="none" stroke="#000000" stroke-width="2" stroke-miterlimit="10" x1="429.2" y1="150" x2="473.4" y2="180.8"/>
	<line fill="none" stroke="#000000" stroke-width="2" stroke-miterlimit="10" x1="473.4" y1="147.8" x2="431.6" y2="181.3"/>
</g>
<line fill="none" x1="497.8" y1="125.1" x2="473.4" y2="147.8"/>
<line fill="#4D6BB3" stroke="#4D6BB3" stroke-width="2" stroke-miterlimit="10" x1="473.4" y1="180.8" x2="497.8" y2="200"/>
<line fill="none" stroke="#E2BC23" stroke-width="2" stroke-miterlimit="10" x1="497.8" y1="125.1" x2="473.4" y2="147.8"/>
<g>
	<g>
		<g>
			<line fill="none" stroke="#000000" stroke-width="4" stroke-miterlimit="10" x1="481.1" y1="162.9" x2="487.1" y2="162.9"/>
			
				<line fill="none" stroke="#000000" stroke-width="4" stroke-miterlimit="10" stroke-dasharray="12.1594,1.0133" x1="488.1" y1="162.9" x2="961.8" y2="162.9"/>
			<line fill="none" stroke="#000000" stroke-width="4" stroke-miterlimit="10" x1="962.3" y1="162.9" x2="968.3" y2="162.9"/>
		</g>
	</g>
	<g>
		<g>
			<line fill="none" stroke="#000000" stroke-width="4" stroke-miterlimit="10" x1="481.1" y1="167.9" x2="487.1" y2="167.9"/>
			
				<line fill="none" stroke="#000000" stroke-width="4" stroke-miterlimit="10" stroke-dasharray="12.1594,1.0133" x1="488.1" y1="167.9" x2="961.8" y2="167.9"/>
			<line fill="none" stroke="#000000" stroke-width="4" stroke-miterlimit="10" x1="962.3" y1="167.9" x2="968.3" y2="167.9"/>
		</g>
	</g>
</g>
</svg>
