<?xml version="1.0" encoding="utf-8"?>
<!-- Generator: Adobe Illustrator 22.0.0, SVG Export Plug-In . SVG Version: 6.00 Build 0)  -->
<svg version="1.1" id="Layer_1" xmlns="http://www.w3.org/2000/svg" xmlns:xlink="http://www.w3.org/1999/xlink" x="0px" y="0px"
	 viewBox="0 0 640 480" style="enable-background:new 0 0 640 480;" xml:space="preserve">
<style type="text/css">
	.st0{fill:#E39D14;}
	.st1{stroke:#000000;stroke-miterlimit:10;}
	.st2{fill:#D8D8D8;stroke:#000000;stroke-width:1.674;stroke-miterlimit:10;}
	.st3{font-family:'HelveticaNeue';}
	.st4{font-size:8px;}
	.st5{font-size:10px;}
	.st6{font-size:13px;}
	.st7{stroke:#000000;stroke-width:1.6443;stroke-miterlimit:10;}
	.st8{stroke:#000000;stroke-width:0.4553;stroke-miterlimit:10;}
	.st9{font-size:14px;}
	.st10{fill:#A8C0F3;stroke:#000000;stroke-miterlimit:10;}
	.st11{font-size:12px;}
	.st12{fill:#FFFFFF;stroke:#000000;stroke-miterlimit:10;}
</style>
<path class="st0" d="M54,237.6c-11,0-20,9-20,20c0,11,9,20,20,20s20-9,20-20C74,246.6,65.1,237.6,54,237.6z M54,244.8
	c3.6,0,6.4,2.9,6.4,6.4c0,3.6-2.9,6.4-6.4,6.4c-3.6,0-6.4-2.9-6.4-6.4C47.6,247.7,50.4,244.8,54,244.8C54,244.8,54,244.8,54,244.8z
	 M65.4,270.4c-6.5,5.9-16.4,5.9-22.9,0v-0.8l0,0c-0.1-4.1,3.1-7.5,7.1-7.6h8.6c4,0.2,7.2,3.5,7.1,7.6V270.4z"/>
<g>
	<line class="st1" x1="92" y1="173.7" x2="143.2" y2="173.7"/>
	<line class="st1" x1="143.2" y1="247.1" x2="143.2" y2="173.7"/>
	<line class="st1" x1="75.5" y1="200.8" x2="92.2" y2="173.4"/>
	<line class="st1" x1="75.7" y1="246.8" x2="143.2" y2="246.9"/>
	<line class="st1" x1="75.7" y1="200.4" x2="75.7" y2="247.4"/>
</g>
<path class="st2" d="M341.6,295.3H228.5c-11,0-20.1-9-20.1-20.1v-59.5c0-11,9-20.1,20.1-20.1h113.1c11,0,20.1,9,20.1,20.1v59.5
	C361.7,286.3,352.6,295.3,341.6,295.3z"/>
<text transform="matrix(1 0 0 1 92.0023 188.8571)" class="st3 st4">Open LDAP</text>
<text transform="matrix(1 0 0 1 92.0022 163.0144)" class="st3 st5">server.xml</text>
<text transform="matrix(1 0 0 1 83.8479 222.6603)" class="st3 st6">AD Tivoli</text>
<g>
	<line class="st7" x1="190.5" y1="259.4" x2="74" y2="259.4"/>
	<polygon class="st8" points="191.7,251.7 197.5,258.5 180.7,258.5 180.7,260.2 197.5,260.2 191.7,267 192.8,268.4 200.3,259.4 
		192.8,250.5 	"/>
</g>
<text transform="matrix(1 0 0 1 229.2848 188.8569)" class="st3 st9">IBM Cloud Private</text>
<path class="st10" d="M341.2,259.4h-110c-4.9,0-9-4-9-9v-11.9c0-5,4.1-9,9-9h110c4.9,0,9,4,9,9v11.9
	C350.2,255.3,346.2,259.4,341.2,259.4z"/>
<text transform="matrix(1 0 0 1 228.058 247.1343)" class="st3 st6">Persist LDAP config</text>
<g>
	<line class="st7" x1="480.2" y1="254.4" x2="363.8" y2="254.4"/>
	<polygon class="st8" points="481.4,246.7 487.3,253.5 470.4,253.5 470.4,255.2 487.3,255.2 481.4,262 482.5,263.4 490.1,254.4 
		482.5,245.5 	"/>
</g>
<text transform="matrix(1 0 0 1 368.5647 235.3714)" class="st3 st11">Configure each LDAP</text>
<path class="st12" d="M608.6,288.7h-99.1c-6.6,0-12-5.4-12-12V228c0-6.6,5.4-12,12-12h99.1c6.6,0,12,5.4,12,12v48.6
	C620.6,283.3,615.2,288.7,608.6,288.7z"/>
<text transform="matrix(1 0 0 1 505.6261 254.4325)" class="st3 st11">WebSphere Liberty</text>
</svg>
