<svg id="Layer_1" data-name="Layer 1" xmlns="http://www.w3.org/2000/svg" viewBox="0 0 1300.69 386.14"><defs><style>.cls-1{fill:#f2f6fc;}.cls-2,.cls-9{fill:#4272b8;}.cls-3,.cls-32,.cls-57,.cls-6,.cls-9{font-size:14px;}.cls-3,.cls-32,.cls-49,.cls-57,.cls-6{fill:#343434;}.cls-3,.cls-9{font-family:IBMPlexSans-Bold, IBM Plex Sans;font-weight:700;}.cls-4{letter-spacing:-0.01em;}.cls-5{letter-spacing:-0.01em;}.cls-25,.cls-36,.cls-49,.cls-57,.cls-6{font-family:IBMPlexSans, IBM Plex Sans;}.cls-7{letter-spacing:-0.01em;}.cls-8{letter-spacing:-0.01em;}.cls-10{letter-spacing:-0.04em;}.cls-11{letter-spacing:0em;}.cls-12{letter-spacing:-0.06em;}.cls-13{fill:#faf8ed;}.cls-14{fill:#bc9b2f;}.cls-15{letter-spacing:-0.02em;}.cls-16{letter-spacing:0em;}.cls-17,.cls-48{fill:none;stroke:#4272b8;}.cls-17,.cls-45,.cls-47,.cls-48{stroke-miterlimit:10;}.cls-17,.cls-45,.cls-47{stroke-width:2px;}.cls-18{fill:#e6e7e7;}.cls-19{fill:#595a5c;}.cls-20{font-size:13px;fill:#231f20;}.cls-20,.cls-32{font-family:IBMPlexSans-Medium, IBM Plex Sans;}.cls-21{letter-spacing:-0.01em;}.cls-22{letter-spacing:0em;}.cls-23{letter-spacing:-0.01em;}.cls-24{letter-spacing:0.01em;}.cls-25{font-size:9px;}.cls-26{letter-spacing:-0.02em;}.cls-27{letter-spacing:-0.01em;}.cls-28{letter-spacing:-0.01em;}.cls-29{letter-spacing:0em;}.cls-30{letter-spacing:0em;}.cls-31{letter-spacing:-0.01em;}.cls-33{letter-spacing:-0.01em;}.cls-34{letter-spacing:-0.01em;}.cls-35{fill:#973995;}.cls-36{font-size:10.82px;fill:#010101;}.cls-37{letter-spacing:-0.01em;}.cls-38{letter-spacing:0em;}.cls-39{letter-spacing:-0.02em;}.cls-40{letter-spacing:-0.01em;}.cls-41{letter-spacing:-0.01em;}.cls-42{letter-spacing:-0.02em;}.cls-43{letter-spacing:0.01em;}.cls-44{letter-spacing:0em;}.cls-45{fill:#f4dd9d;stroke:#bc9a30;}.cls-46{letter-spacing:-0.01em;}.cls-47{fill:#e2e8e6;stroke:#038571;}.cls-48{stroke-width:5px;stroke-dasharray:4 3;}.cls-49{font-size:11px;}.cls-50{letter-spacing:0em;}.cls-51{letter-spacing:-0.01em;}.cls-52{fill:#f9f0f6;}.cls-53{fill:#8d3493;}.cls-54{letter-spacing:-0.02em;}.cls-55{letter-spacing:-0.02em;}.cls-56{letter-spacing:0em;}.cls-57{letter-spacing:-0.01em;}.cls-58{letter-spacing:0em;}.cls-59{letter-spacing:-0.01em;}.cls-60{letter-spacing:0em;}.cls-61{letter-spacing:0em;}.cls-62{letter-spacing:-0.01em;}.cls-63{letter-spacing:0.01em;}.cls-64{letter-spacing:-0.02em;}</style></defs><title>troubleshooting_tools</title><rect class="cls-1" x="840.19" y="63.21" width="438.63" height="298.93"/><path class="cls-2" d="M1277.82,64.21V361.14H841.19V64.21h436.63m2-2H839.19V363.14h440.63V62.21Z"/><rect class="cls-1" x="829.22" y="53.39" width="438.63" height="298.93"/><path class="cls-2" d="M1266.85,54.39V351.32H830.22V54.39h436.63m2-2H828.22V353.32h440.63V52.39Z"/><rect class="cls-1" x="816.86" y="42.07" width="438.63" height="298.93"/><path class="cls-2" d="M1254.49,43.07V340H817.86V43.07h436.63m2-2H815.86V342h440.63V41.07Z"/><text class="cls-3" transform="translate(962.59 70.87)">IBM <tspan class="cls-4" x="30.16" y="0">E</tspan><tspan x="38.51" y="0">d</tspan><tspan class="cls-5" x="47.03" y="0">g</tspan><tspan x="54.67" y="0">e Computing</tspan></text><rect class="cls-1" x="957.95" y="92.26" width="126.64" height="42.5"/><path class="cls-2" d="M1083.58,93.26v40.5H959V93.26h124.63m2-2H957v44.5h128.63V91.26Z"/><text class="cls-6" transform="translate(976.93 118.49)">Hori<tspan class="cls-7" x="26.38" y="0">z</tspan><tspan x="32.73" y="0">on A</tspan><tspan class="cls-8" x="60.8" y="0">g</tspan><tspan x="68.11" y="0">ent</tspan></text><rect class="cls-1" x="34.28" y="47.45" width="424.68" height="302.64"/><path class="cls-2" d="M458,48.45V349.09H35.28V48.45H458m2-2H33.28V351.09H460V46.45Z"/><text class="cls-9" transform="translate(634.88 22.25)"><tspan x="-142.58" y="16">IBM </tspan><tspan class="cls-4" x="-112.43" y="16">E</tspan><tspan x="-104.07" y="16">d</tspan><tspan class="cls-5" x="-95.56" y="16">g</tspan><tspan x="-87.91" y="16">e Computing </tspan><tspan class="cls-10" x="-1.62" y="16">T</tspan><tspan class="cls-11" x="5.93" y="16">r</tspan><tspan x="11.51" y="16">oublesho</tspan><tspan class="cls-8" x="71.67" y="16">o</tspan><tspan x="79.48" y="16">ting </tspan><tspan class="cls-12" x="108.23" y="16">T</tspan><tspan x="115.49" y="16">ools</tspan></text><rect class="cls-1" x="477.25" y="286.07" width="105.5" height="33.09"/><path class="cls-2" d="M581.75,287.07v31.09H478.25V287.07h103.5m2-2H476.25v35.09h107.5V285.07Z"/><rect class="cls-1" x="675.25" y="286.07" width="105.5" height="33.09"/><path class="cls-2" d="M779.75,287.07v31.09H676.25V287.07h103.5m2-2H674.25v35.09h107.5V285.07Z"/><rect class="cls-13" x="893.83" y="251.51" width="56.96" height="30.82"/><path class="cls-14" d="M949.79,252.51v28.82h-55V252.51h55m2-2h-59v32.82h59V250.51Z"/><text class="cls-6" transform="translate(902.63 269.21)"><tspan class="cls-15">s</tspan><tspan class="cls-16" x="6.57" y="0">y</tspan><tspan x="13.5" y="0">slog</tspan></text><line class="cls-17" x1="678.24" y1="178.87" x2="641.01" y2="115.43"/><polygon class="cls-2" points="645.54 114.29 637.74 109.86 637.8 118.83 645.54 114.29"/><rect class="cls-18" x="557.74" y="62.25" width="137.64" height="46.6" rx="19.54" ry="19.54"/><path class="cls-19" d="M675.83,63.25A18.57,18.57,0,0,1,694.38,81.8v7.51a18.57,18.57,0,0,1-18.55,18.55H577.28a18.57,18.57,0,0,1-18.54-18.55V81.8a18.57,18.57,0,0,1,18.54-18.55h98.55m0-2H577.28A20.55,20.55,0,0,0,556.74,81.8v7.51a20.55,20.55,0,0,0,20.54,20.55h98.55a20.55,20.55,0,0,0,20.55-20.55V81.8a20.55,20.55,0,0,0-20.55-20.55Z"/><text class="cls-20" transform="translate(601.71 82.35) scale(1.05 1)"><tspan class="cls-21">R</tspan><tspan class="cls-22" x="8.32" y="0">egi</tspan><tspan class="cls-23" x="25.97" y="0">s</tspan><tspan x="32.3" y="0">t</tspan><tspan class="cls-24" x="37.05" y="0">r</tspan><tspan x="42.15" y="0">y </tspan><tspan class="cls-25"><tspan x="-21.06" y="12.96">(Doc</tspan><tspan class="cls-26" x="-2.44" y="12.96">k</tspan><tspan x="2.15" y="12.96">er Hub or </tspan><tspan class="cls-27" x="41.81" y="12.96">P</tspan><tspan x="47.17" y="12.96">ri</tspan><tspan class="cls-28" x="52.72" y="12.96">v</tspan><tspan x="57.07" y="12.96">a</tspan><tspan class="cls-29" x="61.87" y="12.96">t</tspan><tspan class="cls-30" x="65" y="12.96">e)</tspan></tspan></text><rect class="cls-1" x="266.52" y="115.99" width="126.64" height="42.5"/><path class="cls-2" d="M392.16,117v40.5H267.52V117H392.16m2-2H265.52v44.5H394.16V115Z"/><text class="cls-6" transform="translate(273.37 140.53)">Hori<tspan class="cls-7" x="26.38" y="0">z</tspan><tspan x="32.73" y="0">on E</tspan><tspan class="cls-31" x="59.99" y="0">x</tspan><tspan x="66.92" y="0">chan</tspan><tspan class="cls-8" x="97.34" y="0">g</tspan><tspan x="104.65" y="0">e</tspan></text><text class="cls-3" transform="translate(164.31 74.77)">IBM <tspan class="cls-4" x="30.16" y="0">E</tspan><tspan x="38.51" y="0">d</tspan><tspan class="cls-5" x="47.03" y="0">g</tspan><tspan x="54.67" y="0">e Computing</tspan></text><text class="cls-32" transform="translate(594.26 286.91) scale(1.04 1)">D<tspan class="cls-33" x="9.56" y="0">e</tspan><tspan class="cls-34" x="17.22" y="0">v</tspan><tspan x="24.28" y="0">eloper</tspan></text><path class="cls-35" d="M628.14,211.44c9.82,0,17.8,7.7,17.8,17.17s-8,17.17-17.8,17.17-17.8-7.7-17.8-17.17,8-17.17,17.8-17.17m0-3c-11.54,0-20.89,9-20.89,20.16s9.35,20.16,20.89,20.16,20.9-9,20.9-20.16-9.36-20.16-20.9-20.16Z"/><path class="cls-35" d="M610.7,253.25h34.89a5,5,0,0,1,5,5v9.93a0,0,0,0,1,0,0H605.7a0,0,0,0,1,0,0v-9.93A5,5,0,0,1,610.7,253.25Z"/><line class="cls-17" x1="476.25" y1="309.12" x2="450.56" y2="309.35"/><polygon class="cls-2" points="451.83 304.85 444.1 309.4 451.91 313.82 451.83 304.85"/><line class="cls-17" x1="743.96" y1="247.04" x2="879.77" y2="267.23"/><polygon class="cls-2" points="877.81 271.48 886.16 268.18 879.13 262.6 877.81 271.48"/><line class="cls-17" x1="1003.81" y1="286.02" x2="795.4" y2="308.98"/><polygon class="cls-2" points="796.21 304.37 788.98 309.68 797.2 313.29 796.21 304.37"/><line class="cls-17" x1="741.87" y1="226.08" x2="831.15" y2="150.97"/><polygon class="cls-2" points="833.03 155.25 836.09 146.81 827.25 148.38 833.03 155.25"/><line class="cls-17" x1="745.8" y1="238.34" x2="860.02" y2="230.77"/><polygon class="cls-2" points="859.01 235.34 866.47 230.35 858.41 226.38 859.01 235.34"/><line class="cls-17" x1="743.83" y1="230.76" x2="840.79" y2="189.43"/><polygon class="cls-2" points="841.34 194.07 846.73 186.89 837.82 185.81 841.34 194.07"/><line class="cls-17" x1="513.9" y1="236.28" x2="404.36" y2="199.65"/><polygon class="cls-2" points="407.03 195.81 398.24 197.6 404.18 204.32 407.03 195.81"/><line class="cls-17" x1="523.68" y1="189.28" x2="447.88" y2="252.59"/><polygon class="cls-2" points="446.01 248.3 442.93 256.73 451.77 255.19 446.01 248.3"/><line class="cls-17" x1="574.24" y1="178.87" x2="615.71" y2="115.27"/><polygon class="cls-2" points="618.75 118.82 619.24 109.86 611.24 113.92 618.75 118.82"/><text class="cls-36" transform="translate(509.84 306.8)"><tspan class="cls-37">K</tspan><tspan x="6.7" y="0">af</tspan><tspan class="cls-38" x="15.98" y="0">k</tspan><tspan x="21.63" y="0">acat</tspan></text><rect class="cls-1" x="674.99" y="223.52" width="69.5" height="24.25"/><path class="cls-2" d="M743.49,224.52v22.25H676V224.52h67.5m2-2H674v26.25h71.5V222.52Z"/><rect class="cls-1" x="665.99" y="179.87" width="69.5" height="24.25"/><path class="cls-2" d="M734.49,180.87v22.25H667V180.87h67.5m2-2H665v26.25h71.5V178.87Z"/><text class="cls-36" transform="translate(684.56 197.6)">Doc<tspan class="cls-39" x="18.76" y="0">k</tspan><tspan x="24.28" y="0">er</tspan></text><text class="cls-36" transform="translate(699.35 239.69)"><tspan class="cls-40">S</tspan><tspan x="6.18" y="0">SH</tspan></text><text class="cls-36" transform="translate(683.36 306.8)">D<tspan class="cls-41" x="7.26" y="0">ev</tspan><tspan x="18.35" y="0">elope</tspan><tspan class="cls-42" x="45.5" y="0">r</tspan><tspan class="cls-43" x="49.26" y="0">-</tspan><tspan class="cls-44" x="53.68" y="0">defined</tspan></text><rect class="cls-45" x="156.77" y="256.73" width="178.75" height="48.34" rx="20.55" ry="20.55"/><text class="cls-3" transform="translate(181.25 285.07)">IBM E<tspan class="cls-46" x="38.65" y="0">v</tspan><tspan x="46.07" y="0">ent </tspan><tspan class="cls-11" x="70.95" y="0">S</tspan><tspan x="79.62" y="0">t</tspan><tspan class="cls-11" x="84.98" y="0">r</tspan><tspan x="90.56" y="0">eams</tspan></text><rect class="cls-47" x="83.11" y="162.22" width="161.12" height="41.09" rx="20.55" ry="20.55"/><rect class="cls-47" x="65.85" y="170.99" width="167.29" height="41.09" rx="20.55" ry="20.55"/><rect class="cls-47" x="51.66" y="180.08" width="167.29" height="41.09" rx="20.55" ry="20.55"/><text class="cls-6" transform="translate(83.54 204.05)">Hori<tspan class="cls-7" x="26.38" y="0">z</tspan><tspan x="32.73" y="0">on AgBot</tspan></text><line class="cls-48" x1="1148.42" y1="170.72" x2="1288.2" y2="170.72"/><line class="cls-48" x1="27.71" y1="282.81" x2="156.77" y2="282.81"/><text class="cls-49" transform="translate(48.49 300.12)">f<tspan class="cls-50" x="3.56" y="0">r</tspan><tspan x="7.55" y="0">om ed</tspan><tspan class="cls-51" x="38.32" y="0">g</tspan><tspan x="44.06" y="0">e nodes</tspan></text><line class="cls-17" x1="363.82" y1="314.38" x2="341.21" y2="302.27"/><polygon class="cls-2" points="344.48 298.94 335.51 299.23 340.25 306.85 344.48 298.94"/><line class="cls-17" x1="356.3" y1="183.35" x2="356.18" y2="169.28"/><polygon class="cls-2" points="360.68 170.56 356.13 162.83 351.7 170.63 360.68 170.56"/><line class="cls-17" x1="895.6" y1="143.41" x2="942.65" y2="165.03"/><polygon class="cls-2" points="939.59 168.56 948.52 167.73 943.33 160.4 939.59 168.56"/><line class="cls-17" x1="363.3" y1="259.24" x2="343.81" y2="268.73"/><polygon class="cls-2" points="343.02 264.12 338 271.56 346.95 272.19 343.02 264.12"/><rect class="cls-52" x="363" y="247.17" width="76.42" height="35.39"/><path class="cls-53" d="M438.43,248.17v33.39H364V248.17h74.43m2-2H362v37.39h78.43V246.17Z"/><text class="cls-6" transform="translate(377.98 269.01)"><tspan class="cls-54">W</tspan><tspan x="12.26" y="0">eb UI</tspan></text><rect class="cls-52" x="1065.91" y="153.29" width="81.37" height="35.39"/><path class="cls-53" d="M1146.28,154.29v33.39h-79.37V154.29h79.37m2-2h-83.37v37.39h83.37V152.29Z"/><text class="cls-6" transform="translate(1076.31 173.2) scale(1.06 1)"><tspan class="cls-55">K</tspan><tspan x="8.67" y="0">af</tspan><tspan class="cls-56" x="20.68" y="0">k</tspan><tspan x="27.99" y="0">acat</tspan></text><rect class="cls-52" x="363" y="295.71" width="76.42" height="35.39"/><path class="cls-53" d="M438.43,296.71V330.1H364V296.71h74.43m2-2H362V332.1h78.43V294.71Z"/><text class="cls-57" transform="translate(382.44 315.62)">K<tspan class="cls-58" x="8.67" y="0">af</tspan><tspan class="cls-11" x="20.68" y="0">k</tspan><tspan class="cls-58" x="27.99" y="0">a</tspan></text><rect class="cls-52" x="316.73" y="182.93" width="76.42" height="35.39"/><path class="cls-53" d="M392.16,183.93v33.39H317.73V183.93h74.43m2-2H315.73v37.39h78.43V181.93Z"/><text class="cls-6" transform="translate(324.18 204.77)">RE<tspan class="cls-59" x="17.12" y="0">S</tspan><tspan x="25.07" y="0">T API</tspan></text><path class="cls-17" d="M284.53,164.38c0,29.42,0,31.44-27.16,31.58"/><polygon class="cls-2" points="258.65 191.44 250.91 195.97 258.7 200.41 258.65 191.44"/><rect class="cls-1" x="521.99" y="180.16" width="69.5" height="24.25"/><path class="cls-2" d="M590.49,181.16v22.25H523V181.16h67.5m2-2H521v26.25h71.5V179.16Z"/><text class="cls-36" transform="translate(537.41 197.6)">B<tspan class="cls-38" x="7.06" y="0">ro</tspan><tspan class="cls-60" x="16.99" y="0">w</tspan><tspan x="25.27" y="0">ser</tspan></text><rect class="cls-1" x="512.99" y="224.87" width="69.5" height="24.25"/><path class="cls-2" d="M581.49,225.87v22.25H514V225.87h67.5m2-2H512v26.25h71.5V223.87Z"/><text class="cls-36" transform="translate(530.79 239.69)">cur<tspan class="cls-43" x="15.56" y="0">l</tspan><tspan x="18.61" y="0">, jq</tspan></text><text class="cls-49" transform="translate(1178.85 188.03)"><tspan class="cls-61">t</tspan><tspan x="3.82" y="0">o IBM E</tspan><tspan class="cls-62" x="42.1" y="0">v</tspan><tspan x="47.42" y="0">ent </tspan><tspan x="11.23" y="16">St</tspan><tspan class="cls-50" x="21.48" y="16">r</tspan><tspan x="25.46" y="16">eams</tspan></text><rect class="cls-13" x="839.29" y="129.04" width="58" height="30.64"/><path class="cls-14" d="M896.28,130v28.64h-56V130h56m2-2h-60v32.64h60V128Z"/><text class="cls-6" transform="translate(846.88 148.04)">cur<tspan class="cls-63" x="20.13" y="0">l</tspan><tspan x="24.08" y="0">, jq</tspan></text><line class="cls-17" x1="1004.07" y1="278.14" x2="959.38" y2="271.11"/><polygon class="cls-2" points="961.37 266.89 953 270.11 959.98 275.75 961.37 266.89"/><line class="cls-17" x1="992.21" y1="163.68" x2="992.03" y2="144.14"/><polygon class="cls-2" points="996.53 145.41 991.97 137.68 987.55 145.49 996.53 145.41"/><line class="cls-17" x1="1091.93" y1="243.53" x2="1091.5" y2="197.99"/><polygon class="cls-2" points="1096.01 199.26 1091.44 191.53 1087.03 199.35 1096.01 199.26"/><line class="cls-17" x1="910.54" y1="195.35" x2="943.22" y2="179.44"/><polygon class="cls-2" points="944 184.06 949.02 176.62 940.07 175.98 944 184.06"/><rect class="cls-13" x="853.33" y="171.03" width="60.26" height="30.82"/><path class="cls-14" d="M912.59,172v28.83H854.33V172h58.26m2-2H852.33v32.83h62.26V170Z"/><text class="cls-6" transform="translate(872.26 189.25)">hzn</text><line class="cls-17" x1="926.04" y1="229.46" x2="998.14" y2="255.42"/><polygon class="cls-2" points="995.38 259.2 1004.21 257.61 998.42 250.75 995.38 259.2"/><rect class="cls-13" x="872.37" y="213.68" width="60.26" height="30.82"/><path class="cls-14" d="M931.63,214.68V243.5H873.37V214.68h58.26m2-2H871.37V245.5h62.26V212.68Z"/><text class="cls-6" transform="translate(880.38 234.34)">Doc<tspan class="cls-64" x="24.28" y="0">k</tspan><tspan x="31.42" y="0">er</tspan></text><rect class="cls-47" x="1024.4" y="239.74" width="96.69" height="41.09" rx="20.55" ry="20.55"/><rect class="cls-47" x="1008.32" y="248.51" width="102.37" height="41.09" rx="20.55" ry="20.55"/><rect class="cls-47" x="999.64" y="257.6" width="102.37" height="41.09" rx="20.55" ry="20.55"/><text class="cls-6" transform="translate(1026.13 280.83)">se<tspan class="cls-63" x="14.5" y="0">r</tspan><tspan x="19.78" y="0">vi</tspan><tspan class="cls-8" x="30.17" y="0">c</tspan><tspan x="37.13" y="0">e</tspan></text><rect class="cls-52" x="954" y="153.29" width="76.42" height="35.39"/><path class="cls-53" d="M1029.42,154.29v33.39H955V154.29h74.42m2-2H953v37.39h78.42V152.29Z"/><text class="cls-6" transform="translate(961.44 175.13)">RE<tspan class="cls-59" x="17.12" y="0">S</tspan><tspan x="25.07" y="0">T API</tspan></text></svg>